<?xml version="1.0"?><svg version="1.2" baseProfile="tiny-ps" viewBox="0 0 300 300" xmlns="http://www.w3.org/2000/svg" xmlns:xlink="http://www.w3.org/1999/xlink"><title>Alnafy Solutions</title><g><g fill="#0376f9" transform="matrix(.1 0 0 -.1 0 300)"><path d="M2085 2775c-70-15-163-49-190-69l-19-14 18-41c11-22 22-41 26-41s32 11 63 25l55 26 79 15 78 16 76-6c221-17 416-144 519-337l30-58 20-77 20-77v-162l-15-62c-63-269-321-482-583-483h-53l3 47 3 48 63 7c86 9 149 32 219 77l58 37 44 50c50 56 82 116 105 193l16 55v152l-16 55c-9 30-28 76-41 104l-26 49-61 61-61 60-51 27c-28 15-77 34-109 43l-59 15h-131l-54-15c-196-52-336-208-366-410l-7-45h92l5 28c4 15 11 47 17 71l11 44 39 58 39 58 50 37c61 45 133 73 207 80l57 6 63-16c86-22 137-50 194-107l49-49 32-68 32-67v-191l-38-76-37-77-48-41c-61-54-123-85-199-100l-62-12-16 5-15 6v180l68 3 67 3 3 68 3 67h-421v-140h140v-730h-502l-503-1 37-19 37-20 24-32c14-18 30-50 37-72l12-38-5-45-5-45-19-27-20-26-36-3-36-3-12 20-13 19-24-19-25-19h-89l-34 34-34 34v40c0 23 4 52 10 66l10 26 32 20 33 20h28c15 0 41-7 57-15l30-16v31h39l3-96 3-97 17-11 18-11 17 18 18 18v124l-24 38-23 38-38 19c-21 11-56 22-77 26l-39 6-42-11-42-12-34-30-35-30-17-44-17-45 7-47 6-47 24-37 24-36 39-19 38-18 50-1c28 0 62 3 78 8l27 7v-30h1269l15 16 16 15v346l-18 16-17 16-65 3-65 3-3 118c-1 64-1 117 0 117 2 0 41 4 88 9l86 9 83 28 84 28 75 49 76 49 53 56c30 30 74 87 98 126l44 71 27 80 27 80 5 123 4 123-17 72c-68 282-285 493-567 551l-77 16-78-1-78-1-60-13zM1280 875V720h-20v310h20V875zm155 33 40-63 3 63 3 62h49V760h-51l-37 60c-20 33-40 60-44 60h-8V759l-22 3-23 3-3 89c-2 49-1 95 2 103l5 13h46l40-62zm285-30c18-51 35-99 38-105l4-13h-51l-6 20-6 20h-81l-5-20-5-20h-48v9c0 5 14 47 30 93 17 46 33 89 35 96l4 12h58l33-92zm200 72v-20h-80v-50h60v-30h-59l-3-42-3-43-22-3-23-3v211h130v-20zm184-81c20-55 36-102 36-105 0-2-11-4-24-4h-25l-6 20-6 20h-81l-5-20-5-20h-24c-13 0-24 3-24 7 0 3 16 51 36 105l36 98h56l36-101zm121 61c10-22 21-40 24-40s14 18 23 40l17 40h25c14 0 26-2 26-5s-16-37-35-75l-35-70v-60h-50v83l-30 54c-16 29-30 57-30 63v10h47l18-40zm-582-55-11-35h50l-7 28c-3 15-10 30-14 35l-7 7-11-35zm383 3c-9-35-8-38 14-38 11 0 20 3 20 8 0 19-13 52-20 52-4 0-10-10-14-22zm-883 1662-83-39v-199l76-32 77-32 233 8 234 7v17h-250v260h250v20h-251l-5 15-6 15-97-1-96-1-82-38zm-191-142 3-93 38-3 37-3v191h-81l3-92zm-756 57c-21-7-55-27-74-43l-36-29-23-43-23-43V845l19-40c23-49 74-99 123-119l37-16h481v984l12-12c6-6 80-121 163-254l152-243h158l3 398 2 397h-150l-2-257-3-256-165 261-165 262H560V820H229l-24 25-25 24v1400l24 28 24 28 291 3 291 3v139H523l-288-1-39-14zm661 8c-4-3-7-35-7-70v-63h70v140h-28c-16 0-32-3-35-7zm413-913v-400h600v130h-440v220h390v130h-390v180l213 2 212 3v130l-292 3-293 2v-400zm-484-492-16-22v-79l30 41 30 41 37 20 38 20-52 1h-52l-15-22zm179-106c-11-2-30-13-42-25l-23-20v-78l25-24 24-25h58l27 21 26 20v40c0 22-4 49-10 59l-10 18-27 9c-16 5-37 7-48 5zM770 749v-35l16-22 15-22h82l-34 23c-18 12-44 38-56 56l-23 34v-34zm28-170-18-10v-67l13-10c6-6 24-13 39-17s32-13 38-20l10-12-14-12-14-12-15 16c-9 8-25 15-36 15h-21v-39l19-11c11-5 38-10 60-10h41l16 25 17 26-11 24-12 25-40 16-40 16v28h40v-20h50v14c0 8-7 22-16 30l-15 16h-37c-20 0-45-5-54-11zm205-1-22-11-17-35-16-35 11-38 12-38 22-16 21-15h88l29 29 29 29v84l-29 29-29 29-39-1c-21 0-48-5-60-11zm89-45 18-16v-56l-16-15-15-16h-49l-15 24-16 24 7 26c11 44 53 59 86 29zm88-43V390h120v29l-32 3-33 3-3 83-3 82h-49V490zm141 21 4-79 19-21 19-21h87l20 20 20 20v160h-50V439l-16-6-17-6-16 10-16 10-3 72-3 71h-51l3-79zm199 59v-20h50V390h50v160h60v40h-160v-20zm180-80V390h50v200h-50V490zm115 77-27-23-5-46-5-47 30-31 30-30h42c52 0 76 13 96 52l16 30-7 35-6 35-26 24-26 24h-86l-26-23zm105-37c24-24 25-48 4-78l-15-22h-42l-19 17-18 16v50l17 19 16 18h37l20-20zm100-40V390h50v115l38-57 37-58h55v200h-49l-3-62-3-63-38 63-38 62h-49V490zm227 82-17-19v-53l47-23c25-12 48-27 50-33l4-12-15-5-15-6-15 14c-8 8-24 15-35 15h-21v-13c0-8 8-21 18-30l19-17h80l16 18c10 10 17 28 17 39v20l-18 16c-10 9-33 22-50 28l-32 11v28h19c11 0 23-4 26-10 3-5 17-10 31-10h24v10c0 6-9 19-20 30l-20 20h-77l-16-18z"/></g><g fill="#0e5ce5" transform="matrix(.1 0 0 -.1 0 300)"><path d="M2260 2740v-49l38-6c220-34 394-153 492-336l30-58 20-77 20-77v-162l-15-62c-20-83-67-180-124-250l-47-58-69-52-70-53-64-25-64-26-74-12-73-12v-98l63 5 62 6 84 28 84 28 75 49 76 49 53 56c30 30 74 87 98 126l44 71 27 80 27 80 5 123 4 123-17 72c-56 231-215 419-431 510-57 24-192 57-234 57h-20v-50zm-970-332v-171l98 6c53 4 141 7 195 7h97v20h-250v260h250v20h-251l-5 15-6 15h-128v-172zm833 91-33-10v-96l52 13c67 18 110 18 181-1 82-21 133-50 189-106l49-49 32-68 32-67v-191l-38-76-37-77-48-41c-61-54-123-85-199-100l-62-12-16 5-15 6v180l68 3 67 3 3 68 3 67h-421v-140h140v-730h-730V963l28 4 27 4 40-63 40-63 3 63 3 62h49V760h-51l-37 60c-20 33-40 60-44 60h-8V758l-25 4-25 5v-97h1009l15 16 16 15v346l-18 16-17 16-65 3-65 3v440l63 7c86 9 149 32 219 77l58 37 44 50c50 56 82 116 105 193l16 55v152l-16 55c-9 30-28 76-41 104l-26 49-61 61-61 60-51 27c-28 15-77 34-109 43l-59 15-71-1c-38 0-85-5-102-10zM1720 878c18-51 35-99 38-105l4-13h-51l-6 20-6 20h-81l-5-20-5-20h-48v9c0 5 14 47 30 93 17 46 33 89 35 96l4 12h58l33-92zm200 72v-20h-80v-50h60v-30h-59l-3-42-3-43-22-3-23-3v211h130v-20zm184-81c20-55 36-102 36-105 0-2-11-4-24-4h-25l-6 20-6 20h-81l-5-20-5-20h-24c-13 0-24 3-24 7 0 3 16 51 36 105l36 98h56l36-101zm121 61c10-22 21-40 24-40s14 18 23 40l17 40h25c14 0 26-2 26-5s-16-37-35-75l-35-70v-60h-50v83l-30 54c-16 29-30 57-30 63v10h47l18-40zm-582-55-11-35h50l-7 28c-3 15-10 30-14 35l-7 7-11-35zm383 3c-9-35-8-38 14-38 11 0 20 3 20 8 0 19-13 52-20 52-4 0-10-10-14-22zM980 2395v-95h50v190h-50v-95zm-540 5v-70h370v140H440v-70zm440 0v-70h40v140h-40v-70zM560 1385V820H440V670h260v984l12-12c6-6 80-121 163-254l152-243h158l3 398 2 397h-150l-2-257-3-256-165 261-165 262H560v-565zm710 165v-400h600v130h-440v220h390v130h-390v180l213 2 212 3v130l-292 3-293 2v-400zM798 579l-18-10v-67l13-10c6-6 24-13 39-17s32-13 38-20l10-12-14-12-14-12-15 16c-9 8-25 15-36 15h-21v-39l19-11c11-5 38-10 60-10h41l16 25 17 26-11 24-12 25-40 16-40 16v28h40v-20h50v14c0 8-7 22-16 30l-15 16h-37c-20 0-45-5-54-11zm205-1-22-11-17-35-16-35 11-38 12-38 22-16 21-15h88l29 29 29 29v84l-29 29-29 29-39-1c-21 0-48-5-60-11zm89-45 18-16v-56l-16-15-15-16h-49l-15 24-16 24 7 26c11 44 53 59 86 29zm88-43V390h120v29l-32 3-33 3-3 83-3 82h-49V490zm141 21 4-79 19-21 19-21h87l20 20 20 20v160h-50V439l-16-6-17-6-16 10-16 10-3 72-3 71h-51l3-79zm199 59v-20h50V390h50v160h60v40h-160v-20zm180-80V390h50v200h-50V490zm115 77-27-23-5-46-5-47 30-31 30-30h42c52 0 76 13 96 52l16 30-7 35-6 35-26 24-26 24h-86l-26-23zm105-37c24-24 25-48 4-78l-15-22h-42l-19 17-18 16v50l17 19 16 18h37l20-20zm100-40V390h50v115l38-57 37-58h55v200h-49l-3-62-3-63-38 63-38 62h-49V490zm227 82-17-19v-53l47-23c25-12 48-27 50-33l4-12-15-5-15-6-15 14c-8 8-24 15-35 15h-21v-13c0-8 8-21 18-30l19-17h80l16 18c10 10 17 28 17 39v20l-18 16c-10 9-33 22-50 28l-32 11v28h19c11 0 23-4 26-10 3-5 17-10 31-10h24v10c0 6-9 19-20 30l-20 20h-77l-16-18z"/></g><g fill="#1942d1" transform="matrix(.1 0 0 -.1 0 300)"><path d="M2670 2578v-63l45-55c24-30 58-80 75-111l30-58 20-77 20-77v-162l-15-62c-20-84-68-180-127-254l-49-60 3-67 3-66 67 67 66 66 45 73 46 73 27 80 27 80 5 123 4 123-17 72c-21 85-61 177-106 244-38 56-125 150-151 164l-18 10v-63zm-1120-38c14-4 49-8 78-9l52-1v20l-77-1-78-1 25-8zm-540-145v-95h20v190h-20v-95zm-97 5v-75l4 38c2 20 2 54 0 75l-4 37v-75zm1547 0v-49l51-51 50-50 32-68 32-67v-191l-37-76-38-76-42-38-43-38-5-57-5-57 30 16c16 10 57 44 91 77l61 61 26 49c13 28 32 74 41 104l16 55v152l-16 55c-23 77-55 137-104 192-37 42-119 107-134 107-3 0-6-22-6-50zm-930-140v-10h150v20h-150v-10zm-260-710v-400h600v130h-440v220h390v130h-390v180l213 2 212 3v130l-292 3-293 2v-400zm668 330 4-70h128v-730h-130V935c0-80 2-145 4-145s18 41 35 90l33 90h56l36-101c20-55 36-102 36-105 0-2-11-4-24-4h-25l-6 20-6 20h-81l-5-20-5-20h-48v-90h409l15 16 16 15v346l-18 16-17 16-65 3-65 3-2 362-2 362 67 3 67 3 3 68 3 67h-416l3-70zm287-950c10-22 21-40 24-40s14 18 23 40l17 40h25c14 0 26-2 26-5s-16-37-35-75l-35-70v-60h-50v83l-30 54c-16 29-30 57-30 63v10h47l18-40zm-1187 753-3-258-75 122c-41 67-78 123-82 123h-7l-3-132-3-133 81-130 81-130h158l3 398 2 397h-150l-2-257zm988-805c-9-35-8-38 14-38 11 0 20 3 20 8 0 19-13 52-20 52-4 0-10-10-14-22zM798 579l-18-10v-67l13-10c6-6 24-13 39-17s32-13 38-20l10-12-14-12-14-12-15 16c-9 8-25 15-36 15h-21v-39l19-11c11-5 38-10 60-10h41l16 25 17 26-11 24-12 25-40 16-40 16v28h40v-20h50v14c0 8-7 22-16 30l-15 16h-37c-20 0-45-5-54-11zm205-1-22-11-17-35-16-35 11-38 12-38 22-16 21-15h88l29 29 29 29v84l-29 29-29 29-39-1c-21 0-48-5-60-11zm89-45 18-16v-56l-16-15-15-16h-49l-15 24-16 24 7 26c11 44 53 59 86 29zm88-43V390h120v29l-32 3-33 3-3 83-3 82h-49V490zm141 21 4-79 19-21 19-21h87l20 20 20 20v160h-50V439l-16-6-17-6-16 10-16 10-3 72-3 71h-51l3-79zm199 59v-20h50V390h50v160h60v40h-160v-20zm180-80V390h50v200h-50V490zm115 77-27-23-5-46-5-47 30-31 30-30h42c52 0 76 13 96 52l16 30-7 35-6 35-26 24-26 24h-86l-26-23zm105-37c24-24 25-48 4-78l-15-22h-42l-19 17-18 16v50l17 19 16 18h37l20-20zm100-40V390h50v115l38-57 37-58h55v200h-49l-3-62-3-63-38 63-38 62h-49V490zm227 82-17-19v-53l47-23c25-12 48-27 50-33l4-12-15-5-15-6-15 14c-8 8-24 15-35 15h-21v-13c0-8 8-21 18-30l19-17h80l16 18c10 10 17 28 17 39v20l-18 16c-10 9-33 22-50 28l-32 11v28h19c11 0 23-4 26-10 3-5 17-10 31-10h24v10c0 6-9 19-20 30l-20 20h-77l-16-18z"/></g><g transform="matrix(.1 0 0 -.1 0 300)"><path d="m798 579-18-10v-67l13-10c6-6 24-13 39-17s32-13 38-20l10-12-14-12-14-12-15 16c-9 8-25 15-36 15h-21v-39l19-11c11-5 38-10 60-10h41l16 25 17 26-11 24-12 25-40 16-40 16v28h40v-20h50v14c0 8-7 22-16 30l-15 16h-37c-20 0-45-5-54-11zm205-1-22-11-17-35-16-35 11-38 12-38 22-16 21-15h88l29 29 29 29v84l-29 29-29 29-39-1c-21 0-48-5-60-11zm89-45 18-16v-56l-16-15-15-16h-49l-15 24-16 24 7 26c11 44 53 59 86 29zm88-43V390h120v29l-32 3-33 3-3 83-3 82h-49V490zm141 21 4-79 19-21 19-21h87l20 20 20 20v160h-50V439l-16-6-17-6-16 10-16 10-3 72-3 71h-51l3-79zm199 59v-20h50V390h50v160h60v40h-160v-20zm180-80V390h50v200h-50V490zm115 77-27-23-5-46-5-47 30-31 30-30h42c52 0 76 13 96 52l16 30-7 35-6 35-26 24-26 24h-86l-26-23zm105-37c24-24 25-48 4-78l-15-22h-42l-19 17-18 16v50l17 19 16 18h37l20-20zm100-40V390h50v115l38-57 37-58h55v200h-49l-3-62-3-63-38 63-38 62h-49V490zm227 82-17-19v-53l47-23c25-12 48-27 50-33l4-12-15-5-15-6-15 14c-8 8-24 15-35 15h-21v-13c0-8 8-21 18-30l19-17h80l16 18c10 10 17 28 17 39v20l-18 16c-10 9-33 22-50 28l-32 11v28h19c11 0 23-4 26-10 3-5 17-10 31-10h24v10c0 6-9 19-20 30l-20 20h-77l-16-18z"/></g></g></svg>