<?xml version="1.0"?><svg version="1.2" baseProfile="tiny-ps" viewBox="0 0 300 300" xmlns="http://www.w3.org/2000/svg" xmlns:xlink="http://www.w3.org/1999/xlink"><title>Vertexdispatch</title><g><g fill="#f0f2f4" transform="matrix(.1 0 0 -.1 0 300)"><path d="M0 1500V0h3000v3000H0V1500z"/></g><g fill="#fbb703" transform="matrix(.1 0 0 -.1 0 300)"><path d="M0 1500V0h3000v3000H0V1500zm345 48c-3-18-9-54-14-80l-8-48h7c5 0 69 36 143 81l135 80 41-3 41-3-170-102-170-103h-71l-6 16-6 15 13 76c7 42 14 83 17 90l5 13h49l-6-32zm901 6 26-25-7-27c-3-15-18-39-32-54l-26-27 17-26 16-25h-70l-16 25-17 26-56-3-56-3-3-22-3-23h-49v19c0 10 3 33 6 50l7 31h91c50 0 101 3 114 6l23 7-3 21-3 21-106 3-106 3 5 24 4 25h219l25-26zm342 4-3-23-60-5-60-5-14-77-14-78h-54l14 71c7 39 10 75 7 80l-5 9h-111l6 16c3 9 6 20 6 25v9h291l-3-22zm-688-83v-25H700v18c0 10 3 22 7 25 3 4 48 7 100 7h93v-25zm900 0v-25h-200v18c0 10 3 22 7 25 3 4 48 7 100 7h93v-25zm-868-80-4-25H690v50h247l-5-25zm900 0-4-25h-238v50h247l-5-25z"/></g><g fill="#938860" transform="matrix(.1 0 0 -.1 0 300)"><path d="M0 1500V0h3000v3000H0V1500zm2246 324c45-18 123-53 173-78l91-46v-23l-55 6-55 6 10-17c5-9 24-33 42-53l33-37 108-42 107-42v-38h-25c-28 0-28 0-16-33l10-25 20-7 20-6 5-17c2-9 8-36 11-59l7-43h-68l-11-43-12-42-23-22-24-23-34-6-35-7 27 22 28 22 11 39 12 39-18 47-17 46-32 19-31 19h-84l-36-31-35-31-6-24-6-24h-160l13 16c7 9 37 27 66 40l53 23v21l-27-6-28-7 25 29c13 16 46 52 73 80l49 51-68 79c-37 44-75 88-83 98l-16 19 54-6 54-6-9 8c-5 5-32 16-61 25-60 20-89 41-134 97l-31 40 28-7c16-4 66-22 110-40zM345 1548c-3-18-9-54-14-80l-8-48h7c5 0 69 36 143 81l135 80 41-3 41-3-170-102-170-103h-71l-6 16-6 15 13 76c7 42 14 83 17 90l5 13h49l-6-32zm615 7v-25H713l5 25 4 25h238v-25zm286-1 26-25-7-27c-3-15-18-39-32-54l-26-27 17-26 16-25h-70l-16 25-17 26-56-3-56-3-3-22-3-23h-49v19c0 10 3 33 6 50l7 31h91c50 0 101 3 114 6l23 7-3 21-3 21-106 3-106 3 5 24 4 25h219l25-26zm342 4-3-23-60-5-60-5-14-77-14-78h-54l14 71c7 39 10 75 7 80l-5 9h-111l6 16c3 9 6 20 6 25v9h291l-3-22zm405-3c33-29 33-36 6-53l-21-13-22 20-22 21h-321l5 25 4 25h172l171-1 28-24zm227 21c0-3-29-26-65-51-36-26-65-51-65-55 0-5 24-29 52-54l53-46h-89l-36 35-36 35-104-75-105-75h-78l7 7c4 5 94 70 199 145l192 137h38c20 1 37-1 37-3zM900 1475v-25H700v18c0 10 3 22 7 25 3 4 48 7 100 7h93v-25zm900 0v-25h-200v18c0 10 3 22 7 25 3 4 48 7 100 7h93v-25zm-868-80-4-25H690v50h247l-5-25zm900 0-4-25h-238v50h247l-5-25zm688-117 15-28-15-27-16-28-29-3-30-3-19 14-19 14v66l19 14 19 14 30-3 29-3 16-27zm-1957-60c2-7 0-21-5-30l-9-18h-19c-22 0-23 3-14 38l6 22h36l5-12zm41-22c-3-15-8-25-11-23-2 3-1 17 3 31 3 15 8 25 11 23 2-3 1-17-3-31zm61 25-19-8 18-10 19-10-7-12c-9-13-33-15-40-2l-6 9 22-5 23-4-17 14c-10 8-18 19-18 26v11l23-1h22l-20-8zm88-6c-1-5-11-16-22-24l-21-13v53l23-3 22-3-2-10zm61-1c3-9 6-21 6-27v-12h-25c-14 0-25 1-25 2s5 14 12 28c13 29 23 32 32 9zm70 8c-7-4-14-16-16-27l-4-20-6 28-5 27h42l-11-8zm76-1c0-5-8-8-17-7l-17 1-4-19-4-19 21 6 21 5-6-9c-17-27-53 4-40 36l5 15h21c11 0 20-4 20-9zm79-23v-33l-8 20c-5 11-6 26-4 33 8 21 13 13 12-20zm111 18c0-8 2-20 5-28l5-13h-56l15 27c17 30 31 36 31 14zm81-1 8 20v-27c1-15-3-29-8-32l-9-6-7 18-7 17-8-20-9-20v26c-1 14 2 29 6 33l7 7 10-18 9-17 8 19zm87-9 4-19-14-8c-7-5-19-9-25-9h-13v23c0 28 9 39 29 35l16-3 3-19zm96-28 11-8h-35l1 33 2 32 4-25c3-14 10-28 17-32zm84 25-3-28-18-3-17-3-6 15c-3 9-4 23 0 31l5 15h42l-3-27zm86 19 5-8h-22l-21 1-4-17-3-18h15c9 0 16 5 16 10 0 6 4 10 10 10h9l-5-15-6-15h-18c-24 0-33 15-25 40l6 20h19c10 0 21-4 24-8zm43-24-5-13v50l5-12c2-7 2-19 0-25zm58 23-19-8 18-10 19-10-7-12c-9-13-36-15-36-1v9l18-5 17-6-19 16-18 15 7 10c3 6 14 11 23 10h17l-20-8zm86 0c-8-5-20-7-28-4-21 8-15 13 15 13h27l-14-9zm36-38-5-18v70l5-17c2-10 2-26 0-35zm83 38c0-5-8-8-17-7l-17 1-4-19-4-19 21 6 21 5-6-9c-17-27-53 4-40 36l5 15h21c11 0 20-4 20-9zm56 0-20-8 17-6 17-6v-31h-14c-8 0-18 4-21 10l-6 10 15-6 16-6v10c0 5-7 13-16 16l-15 6 6 10c3 5 14 10 23 9h17l-19-8zm-943-31c-3-11-7-20-9-20s-4 9-4 20 4 20 9 20h9l-5-20zm744-12-5-13-1 19c-1 11 2 17 5 13 3-3 4-12 1-19zm-1221 26c-8-22-8-24 8-24 15 0 28 24 19 34-11 10-21 7-27-10zm194 6c0-5 4-10 9-10 6 0 13 5 16 10l6 10h-15c-9 0-16-4-16-10zm70-10c0-5 5-10 10-10 6 0 10 5 10 10 0 6-4 10-10 10-5 0-10-4-10-10zm490-1v-21l13 4c6 3 13 12 15 21l3 17h-31v-21zm180 1v-20h30v40h-30v-20z"/></g><g fill="#334a6a" transform="matrix(.1 0 0 -.1 0 300)"><path d="M0 1500V0h3000v3000H0V1500zm2207 345c38-14 121-51 186-82l117-56v-38l-52 7-52 7 22-29c12-16 27-36 34-44 7-9 63-36 123-61l110-46 3-21 3-22h-41v-39l29-20 30-21 8-53c5-28 8-55 6-59-2-5-20-8-39-8h-34v-22c0-13-9-37-19-54l-19-32-46-17c-26-10-49-16-52-13-2 3 12 22 32 42l36 36-4 56-5 55-32 32-31 32h-96l-28-18-28-19-17-39-16-39h-155v8c0 18 39 48 78 61 23 8 42 18 42 23v8h-52l71 76c40 42 70 80 69 85-2 4-38 49-80 98-43 50-78 92-78 95 0 2 19 2 43 0l42-4-54 22-54 22-48 50c-27 28-49 54-49 59 0 13 28 8 97-18zM347 1543c-4-21-9-58-13-83l-7-44 24 15c13 8 74 45 135 82l112 67h107l-184-110-184-110h-46l-16 16-16 16 5 17c3 9 10 51 17 94l12 77h60l-6-37zm619 21c-3-9-6-22-6-30v-14H710v23c0 13 3 27 7 30 3 4 62 7 131 7h124l-6-16zm284-4 20-20v-62l-30-30-30-30 15-21c8-12 15-25 15-29v-8h-69l-18 30-17 30h-104l-7-31-7-30-26 3-27 3 2 25c2 14 5 39 8 57l6 32 112 3 112 3 3 18 3 17H990v23c0 13 3 27 7 30 3 4 57 7 120 7h113l20-20zm338-7-3-28-61-3-62-3-7-56c-4-31-11-67-16-80l-9-23h-50v13c1 6 7 42 14 80l13 67h-117v23c0 13 3 27 7 30 3 4 71 7 150 7h144l-3-27zm416-2 28-29-26-17-27-18-18 17-18 16h-333v23c0 13 3 27 7 30 3 4 86 7 183 7h176l28-29zm226 25c0-2-32-25-70-52l-70-48 50-51c27-28 50-54 50-58s-17-7-39-7h-39l-12 15c-7 9-26 25-42 36l-28 21-100-72-100-71-45 3-46 3 203 143 202 142h43c24 0 43-2 43-4zm-1324-92c-3-9-6-22-6-30v-14H700v60h212l-6-16zm904 9c0-5-3-18-6-30l-6-23h-97c-54 0-100 2-103 5s-3 17 0 30l4 25h208v-7zm-870-80c0-5-3-18-6-30l-6-23H691l-5 8c-3 5-2 18 1 30l5 22h248v-7zm900 0c0-5-3-18-6-30l-6-23h-248v14c0 8 3 21 6 30l6 16h248v-7zm655-105 25-11 6-24c4-13 3-34 0-47l-6-23-31-13-30-13-27 20-27 20-3 30-3 31 27 21c31 24 35 25 69 9zm-1930-88c3-6 3-19 0-30l-6-20h-49v23c0 13 3 27 7 30 10 10 41 8 48-3zm45-14c0-14-4-28-10-31l-10-6v61h20v-24zm70 14v-9l-17 5-18 6 18-12c9-6 17-18 17-25v-15h-50v22l17-6 17-7-17 19-17 19 7 6c3 4 15 7 25 7h18v-10zm80-5v-16l-17-6c-10-4-21-11-25-17-12-17-19 0-12 28l6 26h48v-15zm60-12v-28l-30-1-29-1 16 28 17 29h26v-27zm68 16-18-10v-39h-22l6 24 6 24-13 5-12 5 35 1h35l-17-10zm78 0 7-11-22 7-21 6v-10c0-20 4-26 17-23l13 3v-21h-50v23c0 13 3 27 7 30 10 11 41 8 49-4zm47-1 5-13 11 15c14 21 23 7 15-24-7-28-19-34-28-13l-6 12-6-12c-3-7-9-13-13-13h-8l5 30c4 31 17 39 25 18zm141-4c3-9 6-21 6-28v-13h-59l15 29c16 31 29 36 38 12zm65-1 10-18 1 18v17h20l-6-27c-9-38-13-41-30-19l-14 20v-34h-22l6 16c3 9 6 22 6 30 0 19 17 18 29-3zm104 5c2-7 0-21-5-30l-9-18h-51l6 16c3 9 6 22 6 30v14h48l5-12zm83-12-6-24 13-5 12-5-22-1c-13-1-23 2-23 7 1 21 14 52 22 52h10l-6-24zm100 9 6-15-12-15c-14-17-46-20-55-5-3 6-3 19 0 30l6 20h50l5-15zm84-15v-30h-51l-5 15c-4 8-4 22 0 30l5 15h51v-30zm42 0c-4-30-22-43-22-16 0 20 11 46 19 46h8l-5-30zm74 18 7-11-18 7-19 7 17-19 17-19-7-6c-10-11-41-8-49 4l-7 11 24-6 24-7-17 11c-10 6-18 18-18 25v15h19c11 0 23-5 27-12zm67 5-13-5v-18c0-10-4-21-9-24l-9-6-4 30-5 30 26-1 26-1-12-5zm42-20c-8-31-13-39-20-31-9 9 6 58 17 58h10l-7-27zm81 16 7-11-22 7-21 6v-10c0-20 4-26 17-23l13 3v-21h-48l-5 13c-2 6 0 20 5 30l9 17h19c10 0 22-5 26-11zm71-16-2-28-23-3-22-3v20l18-5 17-6-17 12c-10 6-18 18-18 25v15h49l-2-27zm-1437-4v-20l10 6c6 3 10 13 10 21s-4 14-10 14h-10v-21zm756 5c-8-22 1-31 16-16l12 12-11 11-10 10-7-17zm177 1c-3-9-3-18 0-21 9-9 27 6 27 22 0 19-19 18-27-1zm87-5c0-11 4-20 8-20s8 9 8 20-4 20-8 20-8-9-8-20z"/></g><g fill="#2f4463" transform="matrix(.1 0 0 -.1 0 300)"><path d="M0 2191v-810l17-3 17-3-17-17c-22-22-21-28 3-28h20v-24l17 17 17 17-19 14-20 14 8 9 9 8 12-17 13-17 80-7 80-7 7 12 7 11-18 2c-10 0-22 2-28 3-5 2-20 3-32 4l-23 1v23l45-5 45-6 9 12c5 6 12 26 16 44l7 32h-31l8 23 9 22 10-2 10-2 7 39 7 40h9c5 0 9 4 9 8v8l-37 1-38 1-6-10-7-11-11 21-11 21 12 8c7 4 15 8 18 8 3 1 23 4 44 9l39 7 8-13 9-13 10 15 10 15 25-28 25-28v71h-18l5 20 5 19 20 7 20 6 9-13 9-14-4 35-3 34-10 3-11 4 12 24c6 14 16 25 21 26 6 1 19 3 30 4 11 2 58 6 105 10s98 11 113 17l28 11 17 36 17 36 48 3 47 3v10c0 5 7 9 15 9h15v29l20 6c11 3 20 11 20 16 0 6 15 16 33 24 18 7 50 29 71 48l38 35-7 21c-3 12-11 21-16 21h-10l6 10 6 10h-41v9c0 5-6 16-14 24l-15 14 20 21c10 12 19 28 19 36v14l-16 6c-9 3-34 6-55 6h-40l6 10 6 10H821l-6 9-5 10 17 5c10 3 49 4 88 3l70-3 28 14 29 14 24-11 24-11v-13c0-23 73-77 104-77 22 0 85 40 96 60l10 18-15 6-15 5v30l-15-5-15-6v32l-19 12-19 12 15 23c9 13 31 30 49 39l34 16v27l19 6c25 8 54 41 56 64 0 10 8 26 17 35l17 16 5-18 5-17-3 27-3 26 24 13c12 7 23 18 23 25v12l-20 5-20 5v122l25 6 26 6-4 12-4 11-26-3-27-3v10c0 5 4 12 10 16l9 6-6 14-5 15 12 16 13 15 14-5 13-5v19H0v-809zm1357 493c-3-3-11-3-16 1l-11 6 6 11 6 10 11-11c6-6 8-13 4-17zm-947-883c-4-15-13-38-19-50l-12-21-32-1c-18 0-44-2-59-3l-28-2v13c0 6 15 29 34 49l34 37 38 7c22 3 42 5 46 3l7-3-9-29zM87 1554c-3-3-12-4-19-1l-13 5 19 1c11 1 17-2 13-5zm887 785-5-9h61v18h-25c-14 0-28-4-31-9zm701-345c-38-9-108-31-155-49l-85-34-9 9c-16 16-37 12-92-16l-51-26-21-41c-11-23-21-47-23-53l-4-11-70 29c-38 16-82 35-96 41l-27 10-158-116c-203-149-195-143-192-155l3-11-111-68c-60-38-154-102-207-141-53-40-108-77-122-82l-25-9-15 5-15 6-10-23c-5-13-16-32-24-43l-15-19-26 5-26 5 15-16 14-16-33-25-34-25-3-20-3-20-18-3-17-3v41H0v-60h30v-14c0-7 7-19 15-26s15-19 15-27v-15l-30 4-30 5V799l10 6 10 6v-81h50v-20H53c-10 0-26-7-36-14L0 683V-1l1203 2 1202 1-20 8c-11 5-37 9-57 9l-38 1v20l23-3c12-2 16-2 10 0-7 3-13 9-13 15v10l20-5c31-8 24 3-10 14l-30 11 5 8 5 9-22 3-23 3 3 10 3 10 19-3 18-3 8 12 7 12-11-7-12-7v31h13c8 0 23 10 35 23l22 23v19c0 10 15 49 32 86l33 67 33 23 34 23 9 24 9 24 118-7c64-4 171-13 237-21s123-14 127-14h8v582l-17-7c-34-13-127-27-150-22l-23 4-5-18c-4-11-4-23 0-29l6-10-10-37-10-38-33-31c-18-17-43-34-56-38-12-4-27-16-32-26l-10-19-21-3-20-3-17-30c-31-55-30-55-241-56l-154-1 24-15 24-14-31 6-31 6-27-40-28-40 6-10 6-10-14-8c-8-4-41-64-73-133-84-176-92-193-103-210-5-8-11-24-15-34-3-10-8-16-11-13-7 7 82 294 100 322 7 11 19 38 26 60s17 46 23 53l10 12v63c1 76-4 118-16 135l-9 12h-29c-15 0-30 4-34 9l-5 10 27 3 28 4-95 46-96 46-11 25-12 26 19 38 19 39 28 13 28 14 71 5 71 4-4 17-4 16 31 17 30 17v41h28l4 38c3 20 3 43 0 50l-5 13-63 30-64 29v43l16 11 16 12-15 12-14 12-106-75-106-75h-81v9c0 4 19 21 43 37l42 29-122 3-123 3v18c0 11 3 26 6 35l6 16h250l-4-33-4-34 86 60c47 33 114 82 150 108l65 47 38 7c20 4 37 10 37 14v8l30-5 30-4-2 33-2 34-29 34-29 34 14 8 13 9h-13c-8 0-44 31-80 68l-67 68-95 46c-168 83-186 87-305 62zm-705-421c0-5-3-18-6-30l-6-23H710v60h260v-7zm282-10 18-16v-69l-28-28-29-29 19-30 20-31h-81l-21 30-21 30h-98l-3-27-3-28-32-3-33-3 1 18c0 10 3 36 7 58l7 40 115 5 115 5v30l-107 3-108 3v59h243l19-17zm340-13-4-30h-117l-5-17c-4-16-26-131-26-140 0-2-14-3-31-3h-32l7 40c3 22 9 58 12 80l7 40h-113v60h307l-5-30zm410 3 28-27-17-18c-20-22-36-23-53-3l-12 15h-338v23c0 13 3 27 7 30 3 4 85 7 182 7h175l28-27zm-1092-62c0-11-3-26-6-35l-6-16H688l6 23c3 12 6 28 6 35v12h210v-19zm900 7c0-7-3-23-6-35l-6-23h-208l6 28c4 15 9 30 11 35l4 7h199v-12zm-872-100-3-33-127-3-128-3v20c0 11 3 26 6 35l6 16h249l-3-32zm-375-179 10-16-6-17-6-16h-51v28c0 16 3 32 7 36 11 10 35 3 46-15zm47-14v-35h-28l5 23c13 59 23 64 23 12zm71 19 14-17-25 7-25 7 18-11c20-13 22-36 4-43-30-11-47 32-24 61 13 16 22 15 38-4zm63 10c9-3 16-13 16-20v-15l-17-6c-10-4-21-11-25-17-12-18-18 0-12 32 7 33 11 36 38 26zm78-33 4-29-32 1-33 1 11 20c27 53 43 55 50 7zm73 29 6-10h-10c-6 0-13-11-17-25-3-14-11-25-16-25h-10l4 25 5 25h-18l6 10c3 6 15 10 25 10s22-4 25-10zm59 4c9-3 16-10 16-16v-9l-20 6-20 6v-43l14 11 14 12 6-10 7-10-20-10-20-11-15 16-16 16 6 11c10 16 26 37 29 37 2 0 10-3 19-6zm63-24c3 0 12 8 20 18l14 17-5-34c-7-41-14-50-25-32l-8 13-7-11c-4-6-12-11-17-11h-9l6 28c4 15 9 32 13 37l6 10 3-17c2-10 6-18 9-18zm557 24 16-6v-58h-60v23c0 13 5 28 12 35 14 14 12 14 32 6zm59-36c-3-16-9-28-14-28-10 0-11 16-3 48l7 23 8-8 7-8-5-27zm74 4-2-27-19-3-18-4-12 13-11 12 17-6 18-6-13 20-12 20 14 8c8 5 20 7 27 4l13-5-2-26zm73 28c0-5-4-10-10-10h-10v-50h-20v19c0 11-3 26-6 35l-6 16h52v-10zm35-29c-4-17-11-31-16-31-12 0-11 12 1 46 14 35 24 24 15-15zm69 33c9-3 16-10 16-16v-9l-19 6-19 6-5-15c-8-19 3-28 19-15l12 10 6-10 7-10-20-10-20-11-15 16-16 16 6 11c10 16 26 37 29 37 2 0 10-3 19-6zm83-31 3-31-17-6-17-7-15 16-15 15h25l-6 10c-4 6-4 18-1 26l6 15 17-3 18-3 2-32zm-809-5 3-25h-60l15 29 15 29 12-4 12-4 3-25zm61 15 10-18 1 18v17h22l-7-27c-9-36-12-38-29-24l-14 12-5-13c-8-23-15-4-10 25 6 31 18 35 32 10zm104 5c2-7 0-21-5-30l-9-18h-51l6 16c3 9 6 22 6 30v14h48l5-12zm83-12-6-24 13-5 12-5-22-1c-13-1-23 2-23 7 1 21 14 52 22 52h10l-6-24zm99 14c3-6 3-19 0-30l-6-20h-24c-29 0-38 13-30 40l6 20h24c13 0 27-5 30-10zm1178-707c-7-2-21-2-30 0l-18 5h60l-12-5zm-175-20c-10-2-26-2-35 0l-18 5h70l-17-5zm190-10c-21-2-55-2-75 0l-38 4h150l-37-4zM2290 64c0-2-12-4-26-4h-25l5 9 6 9 20-5c11-3 20-7 20-9zM530 1200v-24l12 12 12 12-12 12-12 12v-24zm1020 0c0-11 2-20 4-20s6 9 9 20l5 20h-9c-5 0-9-9-9-20zm-264 4c-8-21-8-24 3-24 5 0 11 7 14 15l6 14-8 6-9 5-6-16zm179 6c-3-5-3-15 0-20l6-10 10 5c12 8 12 35 0 35-6 0-13-4-16-10zM421 1691l-14-9 7-18 7-18 16 17 17 17-10 10-9 9-14-8zm64-91c3-5 10-10 16-10 5 0 9 5 9 10 0 6-7 10-16 10h-15l6-10zm1653-94-48-33 23-21 22-20 55-4 55-3-2 23-3 22h10c6 0 10 6 10 14v15l-29 20c-16 12-33 21-38 20-4 0-29-15-55-33zM2 1291l3-16 43-3 42-3v8c0 5-20 13-45 19l-46 11 3-16zm106-38c7-3 16-2 19 1 4 3-2 6-13 5l-19-1 13-5z"/></g><g fill="#293a53" transform="matrix(.1 0 0 -.1 0 300)"><path d="M1735 1978c-143-33-231-61-287-89l-18-9v38l-14 5-13 5-56-25-56-26-21-39c-11-21-20-45-20-53 0-23-16-26-53-10l-35 14-1-98-2-99 38-7c21-4 46-14 56-22l17-16v-74l-25-23c-29-27-31-42-10-60 8-7 15-16 15-21v-9h-87l-13 25-14 26-7-13c-3-7-9-40-13-73-3-33-8-78-11-100l-6-40 16 28 16 28 12-4 12-4 3-38 3-39-16 14-17 14-8-13-8-14-8 6-9 5-3-60c-1-33-5-64-8-69l-5-9H970L588 921c-211-60-402-114-426-120l-43-12 6-9 6-9-33 1c-65 2-109-27-51-34l28-3v-30l-22-3c-13-2-23-8-23-13s-7-9-15-9H0V0l922 2 921 3 14 59 13 59-5 17-5 16 40 119 41 118-16 17-16 17 21 48c11 26 19 49 17 51-3 3-74 10-241 24l-91 7 156 2 155 1 11-11 11-11 11 6c6 4 11 13 11 21v14l-33 25c-19 15-40 26-48 26-8 1-31 13-53 28l-39 27-21 41-21 41-28 17-28 16 5 9 6 9-40 36c-43 39-48 51-26 59l15 6 7 37 7 38-29 24-29 24 12 4c18 8 73 63 73 74 0 6 7 13 15 16l15 6v48h-9c-5 0-14-7-21-15-16-19-25-19-45 1l-16 16-14-18-14-19-1 13v13l-22-7c-24-8-31-8-63-1-11 2-28 1-37-4l-17-9-15 6-16 6v18c0 22 28 52 44 47 6-2 17-14 23-28l13-24v25c0 14 7 36 16 48l15 22h19c10 0 22 5 26 11l7 11 6-11 7-10 18 34 19 34 26 4 26 4-63 2-63 1 3 33 3 32 90 6 90 5-89 2-88 2 6 23c3 12 6 28 6 35v12h203l13-17 13-18 1 23v22h-221l3 28 3 27 160 5 160 5-32 7-33 8v22l28-7c15-4 37-9 50-11l22-4-21 21-21 21 6 15c3 8 6 35 6 60v45l28-6c15-4 43-15 62-25 20-10 50-22 67-25l31-7 6 10 6 9-51 38-51 37 9 6c5 3 12 14 16 23l6 16-16 6c-8 3-19 4-24 1s-18-1-30 6l-22 11 13 8 12 7-39 39-40 39-49 18c-53 19-77 20-139 5zm-139-401c1-1 0-14-3-29l-5-28h-59c-33 0-59-1-59-3 0-9-22-124-26-139l-5-18h-62l6 43c4 23 10 59 13 80l7 37h-113v28c0 16 2 31 4 33 4 4 298 1 302-4zm-160-315-16-16v55l10-6 10-6 1 13 1 13 5-19 5-18-16-16zm-220-39 13-18 1 18v17h23l-7-32c-8-40-12-44-31-28l-15 12v-16c0-9-4-16-10-16h-10v18c0 23 11 62 18 62 2 0 11-8 18-17zm100 3 19-15-11-18-11-18-28-3-28-4 6 24c4 13 7 29 7 36v12h13c7 0 22-6 33-14zm94-11v-25h10c6 0 10-7 10-15v-15h-50v18c0 28 12 62 21 62h9v-25zm-123-16-5-20 14 12 14 11-6 9c-8 13-11 11-17-12zm-147 301v-20h48l11 13 11 14-7 6c-3 4-19 7-35 7h-28v-20zm327-287c-12-11-8-23 8-23h15v15c0 16-12 20-23 8zm644-927c-7-8-22-17-34-20l-22-5-29-48c-42-69-70-122-89-170l-17-43h161l48 47c26 27 53 58 59 70l12 21 46 22 46 23-6 31c-4 17-7 36-8 43l-1 11-34 7-33 6v19h-88l-11-14z"/></g></g></svg>