<?xml version="1.0" encoding="UTF-8"?>
<svg version="1.1" xmlns="http://www.w3.org/2000/svg" width="4500" height="4500">
<path d="M0 0 C1485 0 2970 0 4500 0 C4500 1485 4500 2970 4500 4500 C3015 4500 1530 4500 0 4500 C0 3015 0 1530 0 0 Z " fill="#2F4461" transform="translate(0,0)"/>
<path d="M0 0 C6.51573041 0.59771317 12.65723613 1.72933189 19 3.3125 C20.8709646 3.77136025 22.74205998 4.22968758 24.61328125 4.6875 C25.53061035 4.91308594 26.44793945 5.13867188 27.39306641 5.37109375 C29.66754499 5.91979733 31.9444871 6.43942157 34.23046875 6.9375 C46.06772977 9.53250768 57.56185584 13.12794985 69.11132812 16.77685547 C72.52903604 17.85485041 75.95222052 18.91447554 79.37664795 19.97090149 C117.80031678 31.8324932 155.59060398 45.25749018 193 60 C194.34079277 60.52692556 195.68161206 61.05378363 197.02246094 61.58056641 C253.58354359 83.83059605 309.27976555 108.34684147 364.26123047 134.24169922 C367.46223854 135.74857163 370.6669189 137.24746758 373.8727417 138.74406528 C389.27102788 145.93501772 404.61814829 153.22523065 419.89453125 160.671875 C420.7179023 161.07301451 421.54127335 161.47415401 422.38959503 161.88744926 C441.24880538 171.08071677 460.02637049 180.43612602 478.78710938 189.82836914 C483.39116802 192.13328852 487.99706148 194.43451536 492.6034584 196.73475742 C496.24725992 198.55483388 499.89008965 200.3768486 503.53264618 202.19941521 C505.23037375 203.04860554 506.92838283 203.89723337 508.62671661 204.74521065 C519.836036 210.34371461 530.95696437 216.09199904 542.02838802 221.95842171 C544.71659803 223.3785699 547.41389927 224.78091376 550.11328125 226.1796875 C562.21839509 232.4531489 574.22428114 238.88712977 586.17382812 245.45166016 C589.19001895 247.10410333 592.21154119 248.74646129 595.234375 250.38671875 C596.25136475 250.93908203 597.26835449 251.49144531 598.31616211 252.06054688 C600.27988781 253.12681169 602.24422192 254.19195694 604.20922852 255.25585938 C605.08506592 255.73216797 605.96090332 256.20847656 606.86328125 256.69921875 C607.63969971 257.12033936 608.41611816 257.54145996 609.21606445 257.9753418 C611 259 611 259 612 260 C612.08865208 262.8843382 612.11521296 265.74462158 612.09765625 268.62890625 C612.0962413 269.49313705 612.09482635 270.35736786 612.09336853 271.24778748 C612.08775239 274.01939292 612.07519719 276.7909188 612.0625 279.5625 C612.05748708 281.4368478 612.05292381 283.31119685 612.04882812 285.18554688 C612.03777772 289.79039544 612.0205023 294.39518421 612 299 C597.69889778 298.30969851 583.50784114 296.56799365 569.2890625 294.9453125 C566.59035378 294.63940239 563.89153347 294.33448172 561.19271851 294.0295105 C555.54928009 293.39125407 549.90613231 292.75048111 544.26318359 292.10791016 C537.10209084 291.29247369 529.94056562 290.48090582 522.77887917 289.67070198 C516.53087068 288.96385794 510.28303594 288.25548244 504.03524351 287.54673147 C502.07319518 287.32418404 500.11113119 287.10177471 498.14906693 286.87936783 C485.07485457 285.39612888 472.00231746 283.89839991 458.93505859 282.35498047 C457.88779917 282.23304888 456.84053974 282.11111729 455.76154518 281.9854908 C454.79693052 281.87054708 453.83231586 281.75560337 452.83847046 281.63717651 C451.9968807 281.53786268 451.15529095 281.43854885 450.28819847 281.33622551 C448.14000802 281.02057263 446.09417471 280.56767932 444 280 C449.78131078 287.41490762 455.61262758 294.78190911 461.5625 302.0625 C466.2896826 307.84992706 470.87839758 313.71819067 475.41015625 319.66015625 C478.34717233 323.4779331 481.39072391 327.20713523 484.4375 330.9375 C490.84274865 338.77985966 497.10375587 346.72735928 503.33398438 354.70898438 C508.67691211 361.54949185 514.07175878 368.33983087 519.5625 375.0625 C523.44969522 379.82184419 527.27339498 384.61373832 531 389.5 C535.32838154 395.17483247 539.78247887 400.73610118 544.31982422 406.24536133 C546.70048958 409.13959338 549.01899453 412.0262178 551.21875 415.0625 C554.38580493 419.4236904 556.93924885 422.30991969 561.95263672 424.44775391 C562.92811462 424.86784729 563.90359253 425.28794067 564.90863037 425.72076416 C565.92878235 426.14291199 566.94893433 426.56505981 568 427 C568.98454163 427.41006287 569.96908325 427.82012573 570.98345947 428.24261475 C574.19301686 429.56226418 577.41139506 430.85801969 580.6328125 432.1484375 C582.48175158 432.89268302 584.3306906 433.63692867 586.17962742 434.38117981 C588.14074911 435.17003488 590.1023554 435.95767287 592.06411743 436.74493408 C596.20348793 438.40610221 600.34147342 440.07070127 604.47924805 441.73583984 C609.48512078 443.75010625 614.49127589 445.76366731 619.49782085 447.77626228 C631.44364755 452.57860088 643.38334356 457.39608675 655.32211304 462.21594238 C661.1832491 464.58206353 667.04477852 466.94720991 672.90625 469.3125 C675.24869846 470.25781115 677.59114638 471.20312365 679.93359375 472.1484375 C687.0910096 475.036796 694.24861553 477.92468331 701.40625 480.8125 C723.20482351 489.60745966 745.00284656 498.40377353 766.79815674 507.20681763 C773.21485468 509.79843751 779.63169551 512.38970358 786.04852295 514.98100281 C791.72634272 517.27391949 797.40403721 519.56714573 803.08154297 521.86083984 C810.36652861 524.80388573 817.6519468 527.74585944 824.9375 530.6875 C826.1227124 531.16616516 827.3079248 531.64483032 828.52905273 532.13800049 C841.19907098 537.25423773 853.87422806 542.35692364 866.56640625 547.41796875 C868.16342628 548.05508034 868.16342628 548.05508034 869.79270935 548.70506287 C874.79773835 550.70126474 879.80395541 552.69439319 884.81225586 554.68237305 C886.56236592 555.37932251 888.31244901 556.07633971 890.0625 556.7734375 C891.25952293 557.2466468 891.25952293 557.2466468 892.48072815 557.72941589 C897.88666658 559.88666658 897.88666658 559.88666658 899 561 C899.09376053 562.81055025 899.1174411 564.62477201 899.11352539 566.43774414 C899.11334412 568.20390076 899.11334412 568.20390076 899.11315918 570.0057373 C899.10548523 571.87654968 899.10548523 571.87654968 899.09765625 573.78515625 C899.09664917 574.92432495 899.09564209 576.06349365 899.09460449 577.23718262 C899.08935338 581.51229858 899.07539227 585.78740025 899.0625 590.0625 C899.041875 599.611875 899.02125 609.16125 899 619 C874.58 619 850.16 619 825 619 C828.73085143 634.83998811 828.73085143 634.83998811 832.99072266 650.44775391 C835.08243965 657.80974768 836.85570063 665.25740932 838.6875 672.6875 C839.29136238 675.13067173 839.89595117 677.57365835 840.50190735 680.01631165 C840.87496206 681.52069478 841.24675844 683.02539069 841.61711121 684.53044128 C842.75924256 690.52196603 842.75924256 690.52196603 846.60668945 694.81494141 C847.77023291 695.50289417 848.93959691 696.18105712 850.11328125 696.8515625 C850.74630661 697.2229686 851.37933197 697.59437469 852.03153992 697.97703552 C853.4027938 698.78032931 854.77641788 699.57958758 856.15209961 700.37527466 C859.06957478 702.06294453 861.97556313 703.76994058 864.8822937 705.47602844 C866.3777482 706.35355063 867.8737878 707.23007639 869.37039185 708.1056366 C874.19820378 710.93188773 879.00607867 713.78857982 883.79296875 716.68359375 C884.40243851 717.05203903 885.01190826 717.42048431 885.6398468 717.8000946 C888.59886771 719.59336903 891.54903245 721.39962826 894.48754883 723.22631836 C899.29708956 726.20468602 904.03353218 729.09867381 909.15625 731.5078125 C918.6398737 736.11209902 918.6398737 736.11209902 920.94677734 741.01025391 C922.65869966 746.44737481 923.16196478 752.03100803 923.67675781 757.68603516 C924.24879379 763.55070008 925.1870841 769.36183296 926.0625 775.1875 C926.26161908 776.56741932 926.45982638 777.94747046 926.65722656 779.32763672 C929.00563321 795.63219937 931.74657663 811.8743613 934.4375 828.125 C938.28381156 851.36097255 942.02464472 874.60506404 945.39672852 897.91552734 C946.23842443 903.61426171 947.12406581 909.30642778 948 915 C909.39 915 870.78 915 831 915 C831.66 918.3 832.32 921.6 833 925 C833.17882838 927.5543051 833.28295723 930.1152859 833.30078125 932.67578125 C833.30651657 933.3592865 833.31225189 934.04279175 833.31816101 934.74700928 C833.3302725 936.93576103 833.324247 939.12375255 833.3125 941.3125 C833.30968018 942.06699432 833.30686035 942.82148865 833.30395508 943.59884644 C833.06615239 986.00007568 818.05582408 1025.77448153 789 1057 C788.41766602 1057.62616211 787.83533203 1058.25232422 787.23535156 1058.89746094 C759.35187002 1088.5155292 724.21719328 1107.25480288 684.875 1116.875 C684.04677734 1117.07843018 683.21855469 1117.28186035 682.36523438 1117.49145508 C671.33210449 1120.04292166 660.25788288 1120.1865046 648.9855957 1120.18530273 C646.70179504 1120.18748633 644.41848123 1120.20570322 642.13476562 1120.22460938 C632.89434461 1120.25867372 624.12327422 1119.61074112 615 1118 C616.28765976 1115.42468048 617.1753312 1115.37483753 619.83984375 1114.40625 C620.64663574 1114.10348145 621.45342773 1113.80071289 622.28466797 1113.48876953 C623.16010254 1113.16247559 624.03553711 1112.83618164 624.9375 1112.5 C667.80745474 1095.88856514 701.74336272 1062.53197999 721 1021 C723.67545547 1014.78401176 725.88301333 1008.4238273 728 1002 C728.26941406 1001.20706543 728.53882812 1000.41413086 728.81640625 999.59716797 C746.80249444 945.91043252 738.22591483 888.16776519 713.6640625 838.234375 C710.80589654 832.54207811 707.69345835 827.19167247 704 822 C703.22182759 820.8651511 702.44454845 819.72968938 701.66796875 818.59375 C697.17603839 812.09502837 692.47763497 806.01700654 687.078125 800.23046875 C685.16973109 798.18217378 683.36375274 796.07964403 681.5625 793.9375 C653.18396223 761.615703 607.99790623 743.92104896 566 740 C560.50410356 739.65939752 555.0043557 739.65970298 549.5 739.6875 C548.76387482 739.68899048 548.02774963 739.69048096 547.26931763 739.6920166 C534.34081209 739.73877746 521.73065893 740.62292727 509 743 C508.24557617 743.13921875 507.49115234 743.2784375 506.71386719 743.421875 C477.29281126 749.08834676 449.43138419 762.48269777 426 781 C425.13375 781.66128906 424.2675 782.32257812 423.375 783.00390625 C387.65137013 811.01931241 361.73051653 854.00678915 354.67578125 898.96484375 C353.94313096 903.33957061 352.96222809 907.6699736 352 912 C271.15 912 190.3 912 107 912 C110.79640309 906.93812921 114.54872316 902.06350135 118.6875 897.3125 C119.73991889 896.09403975 120.7919944 894.87528284 121.84375 893.65625 C122.3696875 893.0478125 122.895625 892.439375 123.4375 891.8125 C125.86912368 888.99181653 128.2811819 886.15478231 130.6875 883.3125 C131.37054199 882.50570801 131.37054199 882.50570801 132.06738281 881.68261719 C134.89194985 878.33671694 137.67547063 874.96039225 140.4375 871.5625 C144.53662447 866.52027986 148.75648241 861.58920594 153.01538086 856.68188477 C155.17045097 854.18854149 157.16925623 851.74611566 159 849 C161.08666992 847.90356445 161.08666992 847.90356445 163.73046875 846.86328125 C164.74093262 846.45924072 165.75139648 846.0552002 166.79248047 845.63891602 C167.91283691 845.20119873 169.03319336 844.76348145 170.1875 844.3125 C172.00539079 843.58730535 173.8232603 842.86205598 175.64050293 842.13523865 C176.95653689 841.60933187 178.27304017 841.08459824 179.58996582 840.56092834 C187.37143529 837.46505703 195.11607996 834.28000532 202.8616333 831.09558105 C205.39607697 830.05383663 207.93111811 829.01355834 210.46630859 827.97363281 C217.80403121 824.96288108 225.13938806 821.9467403 232.46484375 818.90625 C233.60767822 818.43219727 234.7505127 817.95814453 235.92797852 817.46972656 C238.17600261 816.53503632 240.42260075 815.59690874 242.66772461 814.65527344 C249.09098075 811.97550017 255.53839728 809.39243185 262.03700256 806.90174866 C265.88768251 805.42297695 269.72984464 803.9226935 273.5718689 802.42160034 C275.46350901 801.68946888 277.35917948 800.96765651 279.25894165 800.25686646 C292.24977851 795.95857244 292.24977851 795.95857244 301.03491211 786.18920898 C301.35339111 785.46677002 301.67187012 784.74433105 302 784 C302.84095109 782.67910323 303.70660084 781.37356605 304.59765625 780.0859375 C305.83230024 778.22716639 307.06688608 776.36837584 308.29882812 774.5078125 C311.11393801 770.27402954 314.02625476 766.12401747 317 762 C312.33793675 762.47347511 307.67602092 762.94837559 303.01422119 763.42443848 C301.29610133 763.59984404 299.57796166 763.77505556 297.85980225 763.95007324 C286.98988615 765.05821196 276.12381846 766.19648506 265.26171875 767.37890625 C263.13680381 767.60916477 261.01188521 767.8393896 258.88696289 768.06958008 C255.77244327 768.40712449 252.65815253 768.7463312 249.54440308 769.09091187 C246.62640029 769.41378903 243.70781052 769.73081605 240.7890625 770.046875 C239.50215767 770.19190208 239.50215767 770.19190208 238.18925476 770.33985901 C232.76077491 770.92099717 227.45996465 771.08365135 222 771 C230.01825857 761.54256681 238.41170951 752.46772834 246.92114258 743.45385742 C250.99382476 739.13811507 255.04613285 734.80568579 259.0625 730.4375 C263.51294424 725.59774644 267.99843843 720.79224129 272.5 716 C277.02153821 711.18619723 281.52797424 706.35984372 286 701.5 C291.10952257 695.9473752 296.26754212 690.44142485 301.43359375 684.94140625 C305.30901735 680.8123762 309.16543725 676.66698674 313 672.5 C318.69412836 666.31357281 324.44487257 660.18116129 330.19921875 654.05078125 C338.63477961 645.06362305 347.04195761 636.05090851 355.39135742 626.98364258 C360.04136905 621.94082351 364.73717995 616.94144916 369.43334961 611.94165039 C373.30886757 607.81255221 377.16541571 603.66712276 381 599.5 C386.10952257 593.9473752 391.26754212 588.44142485 396.43359375 582.94140625 C400.30901675 578.81237684 404.16549363 574.66703809 408 570.5 C413.09864489 564.9591962 418.24549055 559.46478796 423.40063477 553.9765625 C429.30503288 547.68588105 435.1603457 541.35075998 441 535 C439.63733356 530.96194134 437.8590849 528.45631882 434.9375 525.375 C431.75262181 521.93695184 428.69164338 518.46100777 425.75 514.8125 C422.14529915 510.36147808 418.44629733 506.00801395 414.6875 501.6875 C413.86088867 500.73725952 413.86088867 500.73725952 413.01757812 499.76782227 C411.89837515 498.48168345 410.77907163 497.19563212 409.65966797 495.90966797 C403.45127377 488.76608759 397.27176028 481.60354128 391.3125 474.25 C387.75732096 469.86848205 384.03230463 465.68289319 380.234375 461.51171875 C377.99865467 458.99848768 375.86622318 456.42688521 373.75 453.8125 C369.58915231 448.67305572 365.28265511 443.67673848 360.94067383 438.69091797 C356.9535878 434.10956654 353.01214495 429.49289557 349.09863281 424.84863281 C345.71518136 420.83615915 342.29909223 416.85281439 338.875 412.875 C335.293689 408.71319863 331.76841707 404.5173063 328.3125 400.25 C324.75732096 395.86848205 321.03230463 391.68289319 317.234375 387.51171875 C314.99865467 384.99848768 312.86622318 382.42688521 310.75 379.8125 C306.58915231 374.67305572 302.28265511 369.67673848 297.94067383 364.69091797 C293.95222759 360.10800359 290.01025768 355.48908427 286.09423828 350.84423828 C282.74928761 346.87899977 279.38005078 342.93534871 276 339 C271.69362304 333.98523268 267.41185661 328.95066058 263.14892578 323.89892578 C259.74682443 319.87137528 256.31406417 315.87099984 252.875 311.875 C249.29373398 307.7131582 245.7684187 303.51730831 242.3125 299.25 C238.75732096 294.86848205 235.03230463 290.68289319 231.234375 286.51171875 C228.99865467 283.99848768 226.86622318 281.42688521 224.75 278.8125 C221.12737144 274.33785949 217.40528592 269.96602465 213.625 265.625 C205.97502943 256.84029125 198.45084767 247.95432229 191 239 C191.33 238.34 191.66 237.68 192 237 C200.02101393 237.81071978 208.04180357 238.6236454 216.0625 239.4375 C217.96304138 239.63033066 217.96304138 239.63033066 219.90197754 239.82705688 C237.66972415 241.63111708 255.43532385 243.45526927 273.19921875 245.296875 C274.14976198 245.3953882 275.10030521 245.49390141 276.07965279 245.59539986 C284.66578959 246.48528365 293.25190534 247.37536745 301.837677 248.26876831 C327.79797674 250.97171909 327.79797674 250.97171909 353.76885223 253.57062721 C355.73423962 253.76338811 357.69942935 253.95816092 359.66461182 254.15299988 C360.83070984 254.26597916 361.99680786 254.37895844 363.19824219 254.49536133 C364.20506042 254.59359695 365.21187866 254.69183258 366.24920654 254.79304504 C368.84579351 254.98839833 371.39735902 255.03840529 374 255 C372.59427734 254.50693359 372.59427734 254.50693359 371.16015625 254.00390625 C362.07283505 250.8097627 353.00106017 247.57345992 343.9375 244.3125 C342.87990479 243.93230713 341.82230957 243.55211426 340.73266602 243.16040039 C335.76766419 241.3718664 330.81287039 239.56212973 325.87524414 237.69946289 C322.51479095 236.44601954 319.13289479 235.25377034 315.75 234.0625 C315.01273682 233.80235107 314.27547363 233.54220215 313.51586914 233.27416992 C308.29990578 231.44027779 303.06635424 229.66795183 297.80859375 227.95703125 C294.95454482 226.9845111 292.13951832 225.92444871 289.3190918 224.85913086 C284.63481418 223.12379315 279.90865185 221.50669509 275.1875 219.875 C274.06617676 219.48683105 272.94485352 219.09866211 271.78955078 218.69873047 C262.21238804 215.39474881 252.60663948 212.17962337 242.98510742 209.00732422 C237.91440339 207.33058058 232.87088175 205.62458525 227.8828125 203.71533203 C225.86414742 202.94838588 223.83464051 202.21783811 221.80078125 201.4921875 C204.03567278 195.11542566 186.69525043 187.82232923 170 179 C168.845 178.39929687 167.69 177.79859375 166.5 177.1796875 C152.64998492 169.65661113 140.51142092 159.70135797 129 149 C127.73246698 147.91280705 126.46169369 146.82937895 125.1875 145.75 C117.20734476 138.7916939 109.64705413 131.14912813 102.796875 123.078125 C100.92985524 120.91887606 99.00052094 118.82403312 97.05859375 116.73217773 C92.22414224 111.5231221 87.63884152 106.18667505 83.1796875 100.6484375 C81.02242601 98.02724881 78.78689 95.50845719 76.5 93 C72.65489125 88.77635723 69.03241829 84.4130207 65.44140625 79.97265625 C62.7228097 76.66249309 59.92933261 73.42488748 57.125 70.1875 C53.13747095 65.57530429 49.29251469 60.88505593 45.5625 56.0625 C41.10817342 50.30537821 36.41688399 44.79626524 31.62304688 39.32006836 C28.04754712 35.22944521 24.59378025 31.07181998 21.234375 26.80078125 C19.37112506 24.46520396 17.483857 22.15625384 15.578125 19.85546875 C14.95929443 19.1082959 14.34046387 18.36112305 13.70288086 17.59130859 C12.47376356 16.10963729 11.2429001 14.62941217 10.01000977 13.15087891 C6.47588918 8.88653534 3.1639846 4.54636582 0 0 Z " fill="#FEB800" transform="translate(3154,1690)"/>
<path d="M0 0 C40.06048936 -0.09169971 80.12096495 -0.16211177 120.18153842 -0.20426132 C124.91879597 -0.20926371 129.65605331 -0.21444104 134.39331055 -0.21972656 C135.33635153 -0.2207758 136.27939252 -0.22182505 137.2510105 -0.22290608 C152.48950967 -0.24027714 167.72794803 -0.27179651 182.96641121 -0.30861118 C198.62056095 -0.34611267 214.274679 -0.36825525 229.92887181 -0.37635398 C239.57627013 -0.38182272 249.22349653 -0.39904968 258.87084188 -0.43166587 C265.50034593 -0.45292764 272.12976204 -0.45917388 278.75929765 -0.45400551 C282.57534622 -0.45146172 286.39109594 -0.45515979 290.20709038 -0.4768219 C321.13929931 -0.64361938 349.07977861 3.65397462 373 25 C373.81984375 25.72574219 374.6396875 26.45148437 375.484375 27.19921875 C393.87604599 44.47710842 403.15910317 68.26553529 404.2734375 93.1953125 C405.34507377 132.06874093 388.37715217 166.54487875 362.5390625 194.6796875 C350.44036946 207.2482327 336.0318951 216.53285799 320.5625 224.4375 C319.90016357 224.77990723 319.23782715 225.12231445 318.55541992 225.47509766 C314.71005395 227.38827809 311.27109632 228.53130164 307 229 C311.96067672 237.10176095 316.93753935 245.09215808 322.6171875 252.71484375 C325.97577322 257.28317829 329.12651071 261.99819254 332.3125 266.6875 C332.96532959 267.64817383 333.61815918 268.60884766 334.29077148 269.59863281 C335.58872 271.5091562 336.88649319 273.41979872 338.18408203 275.33056641 C341.98757453 280.92177197 345.82711856 286.48818305 349.66308594 292.05712891 C351.09247454 294.13438868 352.5191473 296.21349473 353.9453125 298.29296875 C354.68056152 299.36442139 354.68056152 299.36442139 355.43066406 300.45751953 C356.3575868 301.80842012 357.28405883 303.15963014 358.20996094 304.51123047 C358.6330957 305.12756348 359.05623047 305.74389648 359.4921875 306.37890625 C360.10658691 307.27440186 360.10658691 307.27440186 360.73339844 308.18798828 C362.06616628 310.09465809 363.44283971 311.96529978 364.8203125 313.83984375 C367 317 367 317 367 319 C352.90939533 319.21051087 338.81903543 319.36847976 324.72717953 319.46630955 C318.18353145 319.5132655 311.64094019 319.57694664 305.09790039 319.67895508 C298.78248793 319.77679772 292.46809137 319.83056962 286.15197945 319.85389519 C283.74331225 319.87051571 281.33470024 319.90297331 278.92646599 319.95157051 C275.549938 320.01699303 272.17759767 320.02589919 268.80053711 320.02172852 C267.80647354 320.054086 266.81240997 320.08644348 265.78822327 320.11978149 C261.57122357 320.06348609 259.03244987 319.94721147 255.84801292 317.02567959 C254.06316366 314.75461793 252.50437443 312.46343988 251 310 C250.3409668 309.08017334 249.68193359 308.16034668 249.00292969 307.21264648 C248.48118164 306.43993408 247.95943359 305.66722168 247.421875 304.87109375 C246.82407227 303.98953613 246.22626953 303.10797852 245.61035156 302.19970703 C244.99643555 301.28817871 244.38251953 300.37665039 243.75 299.4375 C242.42733444 297.48550691 241.10441613 295.53368506 239.78125 293.58203125 C239.13800781 292.63150879 238.49476563 291.68098633 237.83203125 290.70166016 C235.32075228 286.99832685 232.78849157 283.30971244 230.25 279.625 C229.81204102 278.98876709 229.37408203 278.35253418 228.92285156 277.69702148 C228.05222943 276.43235384 227.18146289 275.16778559 226.31054688 273.90332031 C224.49942424 271.27300883 222.69032329 268.64130985 220.88134766 266.00952148 C219.96975631 264.68338002 219.0579764 263.35736815 218.14599609 262.03149414 C215.72681629 258.51415121 213.31070346 254.99474514 210.8984375 251.47265625 C210.39248047 250.73466797 209.88652344 249.99667969 209.36523438 249.23632812 C208.38911027 247.81244066 207.41381818 246.38798238 206.43945312 244.96289062 C204.39861789 241.83824457 204.39861789 241.83824457 202 239 C199.93738494 238.89091084 197.87099364 238.85308597 195.80552673 238.84178162 C195.15130393 238.83684364 194.49708113 238.83190566 193.82303339 238.82681805 C191.61501649 238.81137172 189.40702881 238.80306327 187.19897461 238.79467773 C185.62248982 238.7851048 184.04600764 238.77509508 182.4695282 238.76467896 C178.17635247 238.73756038 173.88316567 238.71658859 169.58995128 238.69667697 C165.10825106 238.67486014 160.62658523 238.64745047 156.14491272 238.62062073 C147.65221585 238.57063546 139.15949995 238.52571835 130.66676575 238.48259836 C121.00064019 238.43327574 111.33454913 238.37833922 101.66845691 238.32291877 C81.77900339 238.2090092 61.88951696 238.10218981 42 238 C42.01140518 239.08108536 42.02281036 240.16217072 42.03456116 241.27601624 C41.99859441 245.15145301 41.44878602 248.57498642 40.68359375 252.37109375 C40.40493018 253.78737049 40.12746275 255.203883 39.85107422 256.62060547 C39.70885437 257.34415222 39.56663452 258.06769897 39.42010498 258.81317139 C38.74311476 262.33719905 38.1370448 265.87264775 37.53515625 269.41015625 C37.41401459 270.11933197 37.29287292 270.82850769 37.1680603 271.55917358 C36.79846025 273.72676686 36.43037347 275.8946131 36.0625 278.0625 C33.73949071 291.71389986 31.37269881 305.35698187 29 319 C1.61 319 -25.78 319 -54 319 C-54 312.768542 -53.8822245 308.31309381 -52.6875 302.4375 C-52.41003794 301.03648176 -52.13269757 299.63543941 -51.85546875 298.234375 C-51.71286621 297.52990234 -51.57026367 296.82542969 -51.42333984 296.09960938 C-49.436959 286.24789354 -47.68365983 276.37196473 -46.17773438 266.4362793 C-45.27503334 260.53770873 -44.24534332 254.66348628 -43.20153809 248.78858948 C-42.28414676 243.62229613 -41.38436514 238.45329759 -40.5 233.28125 C-40.37637085 232.55844345 -40.2527417 231.8356369 -40.12536621 231.09092712 C-39.74991061 228.89400821 -39.37487446 226.69701814 -39 224.5 C-36.24606016 208.36004791 -33.44250748 192.23076313 -30.45117188 176.1328125 C-29.53642731 171.15131196 -28.70385019 166.16422495 -27.93969727 161.15722656 C-27.76277847 160.00015198 -27.58585968 158.84307739 -27.40357971 157.65093994 C-27.27039841 156.77612976 -27.1372171 155.90131958 -27 155 C-26.35820909 154.99940291 -25.71641818 154.99880582 -25.05517906 154.99819064 C13.02386443 154.96225859 51.10282478 154.9055612 89.18179477 154.82207905 C93.75897288 154.81206218 98.33615136 154.80221795 102.91333008 154.79248047 C103.82452354 154.7905391 104.73571701 154.78859772 105.67452239 154.78659752 C120.40806561 154.75561772 135.14159327 154.73860811 149.87516291 154.72680578 C165.00501561 154.71437336 180.13478697 154.68682487 195.2645883 154.64538693 C204.59257844 154.62031129 213.92043358 154.60687838 223.2484579 154.60857043 C229.65418057 154.60860029 236.05976623 154.59388269 242.46543545 154.56783572 C246.15539 154.55325866 249.84506359 154.544927 253.53504181 154.55419731 C282.3240704 154.81472147 282.3240704 154.81472147 307.01953125 141.2265625 C315.16869142 132.81108991 319.43276063 121.29196013 319.27734375 109.6875 C318.49549295 102.11125567 314.87840041 94.88416779 309 90 C303.14330734 86.48232968 297.6807541 83.88080956 290.78947163 83.8613348 C289.70364585 83.85586036 288.61782008 83.85038591 287.49909049 83.84474558 C286.30163505 83.84376747 285.1041796 83.84278936 283.87043762 83.84178162 C282.60197312 83.83684364 281.33350861 83.83190566 280.02660578 83.82681805 C276.4988992 83.81321844 272.97120228 83.80581332 269.44347632 83.79939139 C265.64184601 83.79139545 261.84023583 83.7776949 258.03862 83.76467896 C251.44977765 83.74290476 244.86093328 83.72476372 238.27207375 83.70907402 C228.74563015 83.68638398 219.21920885 83.65823995 209.69278415 83.62875474 C194.23766346 83.58106821 178.78253367 83.5378069 163.32739258 83.49731445 C148.31208589 83.45796493 133.2967873 83.41654 118.28149414 83.37231445 C117.35631368 83.36959018 116.43113322 83.36686591 115.47791699 83.36405908 C110.83666671 83.35037969 106.19541654 83.3366594 101.55416644 83.32291877 C63.0361278 83.20893732 24.51807178 83.10213166 -14 83 C-13.84815906 81.58245926 -13.69467874 80.16509408 -13.54052734 78.74780273 C-13.41259293 77.56383156 -13.41259293 77.56383156 -13.28207397 76.35594177 C-12.86802639 72.89772835 -12.25804001 69.48621903 -11.625 66.0625 C-11.35599496 64.57435879 -11.08779227 63.08607237 -10.8203125 61.59765625 C-10.68399414 60.83984863 -10.54767578 60.08204102 -10.40722656 59.30126953 C-9.74149008 55.53914001 -9.12112851 51.76970622 -8.5 48 C-6.42489325 35.46194413 -4.17865481 22.9560641 -1.90234375 10.453125 C-1.71861206 9.44330566 -1.53488037 8.43348633 -1.34558105 7.39306641 C-0.89718081 4.92868784 -0.44865126 2.46433288 0 0 Z " fill="#F2F3F5" transform="translate(1499,2131)"/>
<path d="M0 0 C1.63844879 -0.00412399 1.63844879 -0.00412399 3.30999756 -0.0083313 C4.49826645 -0.00114075 5.68653534 0.0060498 6.91081238 0.01345825 C8.16975311 0.0131662 9.42869385 0.01287415 10.7257843 0.01257324 C14.16965067 0.01200031 17.61337723 0.02374494 21.05721116 0.03772116 C24.65933918 0.05023843 28.26147053 0.0513998 31.86361694 0.05377197 C38.68105499 0.05998381 45.49842875 0.07639062 52.31583852 0.09647095 C60.0787965 0.11883916 67.84175759 0.1298257 75.60473979 0.13986182 C91.57032658 0.16075712 107.53584927 0.19592733 123.50138855 0.24050903 C120.54031769 3.23844532 117.70974344 5.97956219 114.23576355 8.36941528 C113.43694763 8.92322876 112.63813171 9.47704224 111.81510925 10.04763794 C110.96908142 10.6269104 110.12305359 11.20618286 109.25138855 11.80300903 C107.44777349 13.05137523 105.64439181 14.30007868 103.8412323 15.54910278 C102.49134216 16.48085327 102.49134216 16.48085327 101.11418152 17.431427 C97.32998424 20.05158228 93.57061708 22.7061872 89.81388855 25.36550903 C88.42460548 26.34733625 87.03528267 27.32910725 85.6459198 28.31082153 C84.96352234 28.79325317 84.28112488 29.27568481 83.57804871 29.7727356 C80.05371339 32.26371889 76.52744154 34.75195806 73.00138855 37.24050903 C71.58471286 38.24049626 70.16804619 39.24049625 68.75138855 40.24050903 C-41.74861145 118.24050903 -41.74861145 118.24050903 -43.87336731 119.74026489 C-45.29093799 120.74095091 -46.70841837 121.74176486 -48.12580872 122.7427063 C-51.65291717 125.23326354 -55.18153362 127.72162495 -58.7134552 130.20535278 C-66.9239788 135.98319898 -75.08983812 141.81810034 -83.22053528 147.70779419 C-88.60862989 151.60785071 -94.02618581 155.45931041 -99.49861145 159.24050903 C-98.0462821 162.67743504 -96.25478973 164.57311772 -93.43611145 166.99050903 C-88.63177062 171.20642195 -83.9557671 175.53680275 -79.31111145 179.92800903 C-77.82947504 181.32658895 -76.34770351 182.72502574 -74.86579895 184.12332153 C-74.13328918 184.8145813 -73.40077942 185.50584106 -72.64607239 186.2180481 C-69.41930627 189.25698972 -66.17876774 192.2810413 -62.93611145 195.30300903 C-57.7823669 200.10711569 -52.63693828 204.91991449 -47.49861145 209.74050903 C-40.46237028 216.34081658 -33.41270059 222.92659269 -26.35749817 229.50662231 C-23.23714842 232.41714555 -20.11794043 235.3288919 -16.99861145 238.24050903 C-15.74861686 239.4071815 -14.49861686 240.57384817 -13.24861145 241.74050903 C-10.74861145 244.07384237 -8.24861145 246.4071757 -5.74861145 248.74050903 C-5.12994202 249.31792847 -4.51127258 249.8953479 -3.87385559 250.49026489 C-2.62302014 251.65772217 -1.37220636 252.82520266 -0.12141418 253.9927063 C2.99062676 256.89746678 6.10303507 259.80183156 9.2162323 262.70535278 C16.32652038 269.3376383 23.42681167 275.98040606 30.51847839 282.63259888 C35.02819402 286.86189498 39.54377534 291.08482872 44.06388855 295.30300903 C44.66934509 295.86866577 45.27480164 296.43432251 45.89860535 297.01712036 C49.15890023 300.06165088 52.42687651 303.0974625 55.70451355 306.12332153 C56.39214783 306.76003784 57.0797821 307.39675415 57.78825378 308.05276489 C59.10835023 309.27485249 60.43067413 310.49453973 61.75553894 311.7114563 C62.34842712 312.26116089 62.94131531 312.81086548 63.5521698 313.37722778 C64.07464294 313.85893433 64.59711609 314.34064087 65.13542175 314.83694458 C66.50138855 316.24050903 66.50138855 316.24050903 68.50138855 319.24050903 C51.83737295 319.35749263 35.17349128 319.44557042 18.50916386 319.49956989 C10.77099921 319.52531318 3.03309023 319.56038893 -4.70491028 319.6177063 C-11.45212992 319.66766072 -18.19916434 319.69982821 -24.94656378 319.71095151 C-28.51686485 319.71745011 -32.08663619 319.73264099 -35.65676689 319.76915932 C-39.6497754 319.80966904 -43.64187253 319.81045081 -47.63508606 319.80813599 C-48.80897385 319.82611237 -49.98286163 319.84408875 -51.19232178 319.86260986 C-60.43622709 319.80473369 -66.50371746 317.38708852 -73.06111145 310.86550903 C-73.61927551 310.26996216 -74.17743958 309.67441528 -74.7525177 309.06082153 C-76.5777531 307.15800343 -78.49607025 305.45477655 -80.49861145 303.74050903 C-83.72817512 300.95811572 -86.73183798 298.03031475 -89.71736145 294.99050903 C-91.58250819 293.15808416 -93.51788891 291.44697769 -95.49861145 289.74050903 C-98.72817512 286.95811572 -101.73183798 284.03031475 -104.71736145 280.99050903 C-106.58250819 279.15808416 -108.51788891 277.44697769 -110.49861145 275.74050903 C-113.72817512 272.95811572 -116.73183798 270.03031475 -119.71736145 266.99050903 C-121.58250819 265.15808416 -123.51788891 263.44697769 -125.49861145 261.74050903 C-128.72817512 258.95811572 -131.73183798 256.03031475 -134.71736145 252.99050903 C-136.58250819 251.15808416 -138.51788891 249.44697769 -140.49861145 247.74050903 C-143.10508754 245.49492964 -145.58795666 243.19499391 -147.99861145 240.74050903 C-150.38914312 238.30661171 -152.84907407 236.02695344 -155.43611145 233.80300903 C-158.24437492 231.38433124 -160.89831738 228.88151221 -163.49861145 226.24050903 C-169.90073642 219.46371379 -169.90073642 219.46371379 -177.49861145 214.24050903 C-178.52857239 214.96754028 -179.55853333 215.69457153 -180.6197052 216.44363403 C-266.74861145 277.24050903 -266.74861145 277.24050903 -268.87312317 278.74002075 C-270.29159785 279.74139284 -271.70989179 280.74302101 -273.12800598 281.74490356 C-276.64058258 284.22602844 -280.15605423 286.70281219 -283.67829895 289.17019653 C-292.07616387 295.06113383 -300.37854771 301.06598028 -308.62312317 307.16970825 C-313.2187915 310.56969441 -317.8353481 313.93390621 -322.49861145 317.24050903 C-328.78710023 321.70166847 -334.98999874 326.27464252 -341.1900177 330.85769653 C-346.60141214 334.85367042 -352.03868087 338.81115899 -357.49861145 342.74050903 C-363.69519418 347.20066434 -369.8583724 351.70310591 -375.99861145 356.24050903 C-385.85256265 363.52010417 -395.78435741 370.68881417 -405.72810364 377.84500122 C-414.9901334 384.51285197 -424.21446038 391.22727942 -433.39289856 398.00979614 C-438.7369687 401.95458025 -444.10768171 405.86005566 -449.49861145 409.74050903 C-455.90070703 414.34993292 -462.27340186 418.99733811 -468.62361145 423.67800903 C-469.39318176 424.24519653 -470.16275208 424.81238403 -470.9556427 425.39675903 C-475.12641392 428.37229785 -475.12641392 428.37229785 -479.00244713 431.70093822 C-485.21525347 437.26126913 -491.0254986 437.05928894 -499.07478333 436.92166138 C-500.43555119 436.91996641 -501.79632454 436.92092387 -503.15708923 436.92431641 C-506.83053978 436.92602987 -510.50280205 436.89088824 -514.17597771 436.84887266 C-518.02227034 436.8112284 -521.86859369 436.80782958 -525.71504211 436.80072021 C-532.9894766 436.7821113 -540.26336659 436.7329287 -547.53756189 436.67262328 C-555.82288143 436.60543421 -564.10822771 436.57253813 -572.3937521 436.54245067 C-589.42901955 436.47982544 -606.46375783 436.37436837 -623.49861145 436.24050903 C-618.0410376 430.72876667 -618.0410376 430.72876667 -615.1431427 428.80300903 C-614.53027405 428.38994507 -613.9174054 427.9768811 -613.28596497 427.55130005 C-612.30841248 426.9024585 -612.30841248 426.9024585 -611.31111145 426.24050903 C-605.31907664 422.19371451 -599.40963475 418.0546334 -593.56111145 413.80300903 C-587.73605564 409.572961 -581.88837649 405.38002015 -575.99861145 401.24050903 C-570.19461032 397.16026269 -564.42861108 393.03183307 -558.68611145 388.86550903 C-551.50146885 383.65508127 -544.24773658 378.55069963 -536.96687317 373.4758606 C-530.62263992 369.04633391 -524.33947732 364.53818707 -518.07673645 359.99441528 C-513.0776288 356.37072349 -508.04956245 352.79153019 -502.99861145 349.24050903 C-497.13369828 345.11664636 -491.3043567 340.94725398 -485.49861145 336.74050903 C-477.57948001 331.00431896 -469.60604301 325.34915497 -461.60749817 319.72439575 C-458.06819978 317.23402117 -454.53365961 314.73691112 -450.99861145 312.24050903 C-449.58196733 311.24047709 -448.16530067 310.24047708 -446.74861145 309.24050903 C-446.04736145 308.74550903 -445.34611145 308.25050903 -444.62361145 307.74050903 C-251.24861145 171.24050903 -251.24861145 171.24050903 -249.12385559 169.74075317 C-247.70628491 168.74006715 -246.28880453 167.73925321 -244.87141418 166.73831177 C-241.34430573 164.24775453 -237.81568928 161.75939312 -234.2837677 159.27566528 C-227.02626033 154.16818817 -219.80281559 149.0200588 -212.62361145 143.80300903 C-205.70168956 138.77672343 -198.67923599 133.91846949 -191.60237122 129.11355591 C-185.43431663 124.91284914 -179.37545922 120.57727077 -173.34065247 116.1880188 C-165.26875966 110.32562744 -157.08318282 104.6288716 -148.90193176 98.92068481 C-145.19686666 96.33045137 -141.50308517 93.72435526 -137.81111145 91.11550903 C-137.12138245 90.62816284 -136.43165344 90.14081665 -135.72102356 89.63870239 C-134.33903044 88.66200299 -132.95711276 87.68519685 -131.57527161 86.70828247 C-128.76121311 84.71931942 -125.94588649 82.73215579 -123.13044739 80.74514771 C-121.71039926 79.74288515 -120.29047715 78.74044403 -118.87068176 77.73782349 C-115.34383546 75.24740342 -111.81544937 72.75922441 -108.2837677 70.27566528 C-101.02626033 65.16818817 -93.80281559 60.0200588 -86.62361145 54.80300903 C-79.70168956 49.77672343 -72.67923599 44.91846949 -65.60237122 40.11355591 C-60.19129775 36.42838538 -54.85633857 32.65254584 -49.56111145 28.80300903 C-43.07268164 24.08970213 -36.55695114 19.41868204 -29.99861145 14.80300903 C-29.1981842 14.2359021 -28.39775696 13.66879517 -27.57307434 13.08450317 C-8.89682257 -0.01732585 -8.89682257 -0.01732585 0 0 Z " fill="#FEB800" transform="translate(3227.4986114501953,2130.759490966797)"/>
<path d="M0 0 C27.39 0 54.78 0 83 0 C83 4.5552842 82.94315208 8.2519316 82.265625 12.6328125 C82.02598022 14.1955188 82.02598022 14.1955188 81.78149414 15.78979492 C81.60610107 16.8904126 81.43070801 17.99103027 81.25 19.125 C81.06880615 20.28298096 80.8876123 21.44096191 80.70092773 22.6340332 C79.4749534 30.34690247 78.08436627 38.01366717 76.57128906 45.67456055 C75.03348573 53.56658511 73.7589407 61.49729704 72.5 69.4375 C70.97478737 79.05036843 69.37713414 88.64087001 67.59204102 98.20922852 C65.64378484 108.75153461 63.92731892 119.33353988 62.19360352 129.9128418 C60.59479648 139.63579693 58.84767815 149.32143672 57 159 C54.81838504 170.59805194 52.77268626 182.19379983 51.07421875 193.87304688 C49.93523697 201.62926517 48.49148323 209.30425405 47 217 C46.72500117 218.48017953 46.45160279 219.96065716 46.1796875 221.44140625 C46.04498047 222.17262695 45.91027344 222.90384766 45.77148438 223.65722656 C45.51367273 225.05868052 45.25709464 226.46036216 45.00195312 227.86230469 C44.48294562 230.66236451 43.90224703 233.2932589 43 236 C63.43324019 238.48921888 76.65893933 229.24815596 93.02832031 218.5703125 C98.92774314 214.7300581 104.96905672 211.12841452 111 207.5 C112.14063249 206.8068047 113.28076769 206.11279049 114.42041016 205.41796875 C123.23887492 200.04160687 132.1122264 194.76081099 141 189.5 C151.11575766 183.51098893 161.2064085 177.48434996 171.25 171.375 C171.8217395 171.02725525 172.393479 170.6795105 172.98254395 170.32122803 C176.98977938 167.88314193 180.99512241 165.44195666 185 163 C189.58200252 160.20614393 194.16489554 157.41376307 198.75 154.625 C199.60712585 154.10362457 199.60712585 154.10362457 200.48156738 153.57171631 C210.62480945 147.40591592 220.82510653 141.33884619 231.03991699 135.2925415 C240.39611734 129.7533278 249.71654964 124.16025231 259 118.5 C268.95820537 112.42833993 278.96312255 106.44068021 289 100.5 C300.34885514 93.78219429 311.65045924 86.99250553 322.9140625 80.1328125 C331.44834569 74.93588489 340.00997665 69.78618975 348.58349609 64.65429688 C355.67994818 60.40246135 362.75383169 56.11451504 369.81933594 51.81152344 C381.83744565 44.49293226 393.91368295 37.27791857 406.02807617 30.11987305 C412.68313123 26.18346242 419.31390333 22.21361256 425.8984375 18.16015625 C426.53348206 17.77020477 427.16852661 17.3802533 427.82281494 16.97848511 C430.81887371 15.13831411 433.81015027 13.2912433 436.79296875 11.4296875 C450.70239889 2.8687444 462.66191729 -0.31820162 478.96508789 -0.22705078 C480.35556022 -0.22648565 481.74603314 -0.22680522 483.13650513 -0.22793579 C486.88590578 -0.22850631 490.63517677 -0.21680102 494.38454747 -0.20278788 C498.31230198 -0.1902301 502.24005993 -0.18910606 506.16783142 -0.18673706 C513.5942885 -0.18053706 521.02068624 -0.1641464 528.44711727 -0.14403808 C536.9066488 -0.12163286 545.36618327 -0.11067405 553.82573712 -0.10064721 C571.21719232 -0.07977876 588.60858987 -0.04463175 606 0 C602.30668451 3.00666047 598.60714834 5.53645559 594.49609375 7.94921875 C593.8687735 8.3192099 593.24145325 8.68920105 592.59512329 9.07040405 C591.24650857 9.86546113 589.89690872 10.65884913 588.54641724 11.45071411 C584.94012661 13.5656427 581.34134943 15.69328231 577.7421875 17.8203125 C577.0095015 18.25297928 576.27681549 18.68564606 575.52192688 19.13142395 C568.33259778 23.38260779 561.19315021 27.71383944 554.0625 32.0625 C546.26179841 36.81680865 538.44476346 41.53333959 530.55322266 46.13525391 C523.96666321 49.9902956 517.45458567 53.9665415 510.9375 57.9375 C500.66617456 64.19558178 490.35058344 70.37395347 480 76.5 C469.88417309 82.48888904 459.79353052 88.51555496 449.75 94.625 C449.18158386 94.97075073 448.61316772 95.31650146 448.02752686 95.67272949 C444.59761279 97.75976132 441.16902449 99.8489637 437.74084473 101.93884277 C421.59690846 111.77961397 405.42586267 121.56496445 389.13134766 131.15527344 C364.97538095 145.37507533 364.97538095 145.37507533 341.07421875 160.01660156 C333.26487714 164.87919394 325.35494116 169.56649746 317.4375 174.25 C307.00560386 180.42092657 296.60233892 186.63391449 286.25 192.9375 C285.66733368 193.29227417 285.08466736 193.64704834 284.48434448 194.01257324 C283.90741852 194.36388306 283.33049255 194.71519287 282.73608398 195.07714844 C275.38602141 199.55279367 268.01933418 203.99865255 260.63354492 208.41503906 C255.93248174 211.22988784 251.24458283 214.0652212 246.56640625 216.91796875 C234.60181713 224.21363711 222.60583909 231.4406713 210.5 238.5 C200.92746246 244.08336469 191.40334501 249.73744765 181.9375 255.5 C181.07191467 256.02693451 181.07191467 256.02693451 180.18884277 256.56451416 C176.70114109 258.68871758 173.21527922 260.81592658 169.72991943 262.94396973 C164.57271183 266.09218995 159.41258449 269.23560531 154.25 272.375 C153.68317505 272.71974365 153.1163501 273.0644873 152.53234863 273.41967773 C141.4918639 280.13017714 130.39058192 286.73696321 119.27246094 293.31787109 C118.64293518 293.69061157 118.01340942 294.06335205 117.36480713 294.4473877 C116.11484706 295.1870881 114.86448455 295.92610892 113.6137085 296.66442871 C110.40429354 298.56190074 107.20836984 300.47832912 104.02929688 302.42626953 C97.57551198 306.3724891 91.23846105 310.21968055 84.125 312.875 C83.47660156 313.143125 82.82820312 313.41125 82.16015625 313.6875 C65.10135805 320.25593445 46.71679582 319.53322171 28.7512207 319.50097656 C24.93761785 319.49504942 21.12527442 319.52587182 17.3119154 319.56609344 C14.33213219 319.59213201 11.35264775 319.59483428 8.37276649 319.59120178 C6.9675711 319.59287323 5.56235884 319.60232089 4.15727806 319.62034607 C-9.88497081 319.78094917 -21.73029459 315.64528935 -32.12109375 306.0390625 C-41.27116226 296.45657109 -46.44551204 284.46151399 -46.43603516 271.20019531 C-46.20655738 262.23683261 -44.22848067 253.52172224 -42.49609375 244.75390625 C-40.79180461 236.09503605 -39.36358655 227.39577633 -37.9375 218.6875 C-36.37459381 209.19666858 -34.81141807 199.70872399 -33.0625 190.25 C-31.15077372 179.90588277 -29.31722142 169.54857679 -27.5 159.1875 C-27.27034042 157.87839661 -27.27034042 157.87839661 -27.03604126 156.54284668 C-25.03722367 145.1307941 -23.08678629 133.71475852 -21.33007812 122.26245117 C-20.40928553 116.31309565 -19.34035422 110.40074404 -18.21818542 104.48606873 C-16.58558856 95.85918942 -15.07427656 87.21122988 -13.5625 78.5625 C-13.33330872 77.25430298 -13.33330872 77.25430298 -13.0994873 75.91967773 C-11.06443891 64.29371347 -9.10758542 52.66077472 -7.27978516 41.00024414 C-6.01451746 32.96365562 -4.53151497 24.99051288 -3 17 C-2.01 11.39 -1.02 5.78 0 0 Z " fill="#F2F3F5" transform="translate(444,2131)"/>
<path d="M0 0 C145.2 0 290.4 0 440 0 C439.20797998 7.12818018 438.27881187 14.16806015 437.1875 21.25 C437.01154297 22.39388184 436.83558594 23.53776367 436.65429688 24.71630859 C435.42895916 32.55345526 434.04065 40.34336608 432.50732422 48.12548828 C430.9365223 56.14663738 429.60377148 64.2024665 428.30664062 72.27197266 C428.15001953 73.2366748 427.99339844 74.20137695 427.83203125 75.1953125 C427.69514893 76.05141113 427.5582666 76.90750977 427.41723633 77.78955078 C427 80 427 80 426 83 C366.93 83 307.86 83 247 83 C246.67 86.96 246.34 90.92 246 95 C245.4268333 98.77670296 244.8194487 102.52378767 244.14453125 106.28125 C243.96231522 107.32166443 243.78009918 108.36207886 243.59236145 109.434021 C243.00375541 112.79018983 242.40808931 116.14506414 241.8125 119.5 C240.99121087 124.17147621 240.17348982 128.84357558 239.35546875 133.515625 C239.15272339 134.67052429 238.94997803 135.82542358 238.74108887 137.01531982 C236.73246509 148.47513052 234.81946011 159.94992267 232.94067383 171.43164062 C231.8734605 177.92865831 230.75170112 184.41099289 229.51953125 190.87890625 C228.0308416 198.69561756 226.72168635 206.53712885 225.43844604 214.38983154 C223.58539221 225.71513584 221.67973605 237.01810874 219.46459961 248.27905273 C218.04354822 255.58096981 216.83305854 262.90960619 215.625 270.25 C212.91202754 286.52783479 209.9520332 302.76381741 207 319 C179.61 319 152.22 319 124 319 C125.12698413 308.85714286 125.12698413 308.85714286 125.8671875 304.03125 C126.10985352 302.44618652 126.10985352 302.44618652 126.35742188 300.82910156 C126.61362305 299.18119629 126.61362305 299.18119629 126.875 297.5 C127.05353516 296.34725586 127.23207031 295.19451172 127.41601562 294.00683594 C128.9578887 284.12834802 130.65709822 274.28803987 132.46875 264.45605469 C134.40829515 253.92871878 136.2907736 243.40487439 137.92797852 232.82592773 C139.40073377 223.33915338 141.09340159 213.89324358 142.83862305 204.453125 C145.72357374 188.80972349 148.37719432 173.12846576 151.01642609 157.44222641 C151.62347794 153.83668143 152.23238974 150.23145077 152.84130859 146.6262207 C152.96222933 145.9102494 153.08315006 145.19427809 153.20773506 144.45661068 C153.45044352 143.01955565 153.69315805 141.58250165 153.93587875 140.14544868 C154.29437784 138.02259939 154.65272216 135.89972402 155.01101685 133.77684021 C156.74996404 123.47424947 158.49176508 113.17215623 160.25177002 102.87313843 C160.49808535 101.43071345 160.74382501 99.98819004 160.98895264 98.54556274 C161.3166674 96.61736117 161.64654209 94.68952704 161.9765625 92.76171875 C162.15268066 91.73006592 162.32879883 90.69841309 162.51025391 89.63549805 C162.92441296 87.40676078 163.45019803 85.19920788 164 83 C105.26 83 46.52 83 -14 83 C-11.7561793 65.04943444 -11.7561793 65.04943444 -10.59765625 58.77734375 C-10.33835106 57.3527661 -10.07941621 55.928121 -9.82080078 54.50341797 C-9.68716125 53.77386902 -9.55352173 53.04432007 -9.41583252 52.29266357 C-8.6698189 48.17956955 -7.96039118 44.06010397 -7.24609375 39.94140625 C-6.94610592 38.21937623 -6.64597513 36.49737111 -6.34570312 34.77539062 C-5.8887843 32.15383424 -5.4322393 29.53221541 -4.97680664 26.91040039 C-4.52605584 24.31636665 -4.0737074 21.72261552 -3.62109375 19.12890625 C-3.48771103 18.35889786 -3.35432831 17.58888947 -3.21690369 16.79554749 C-2.23382341 11.17365332 -1.12019747 5.60098737 0 0 Z " fill="#F2F3F5" transform="translate(1949,2131)"/>
<path d="M0 0 C49.82949414 -0.08558946 99.65899338 -0.16519286 149.48854065 -0.2117157 C150.22600061 -0.21240598 150.96346057 -0.21309627 151.7232678 -0.21380747 C167.75015151 -0.22877191 183.77703601 -0.24262284 199.80392167 -0.25532665 C207.66347074 -0.26156335 215.5230196 -0.26804611 223.38256836 -0.2746582 C224.1646891 -0.275312 224.94680984 -0.27596579 225.75263121 -0.2766394 C251.10470115 -0.2979472 276.45671539 -0.33550453 301.80875158 -0.3814861 C327.8606579 -0.42865124 353.9125334 -0.45942772 379.96448169 -0.46957495 C383.64389895 -0.47101573 387.3233161 -0.47264391 391.00273323 -0.47438622 C392.0889793 -0.47489189 392.0889793 -0.47489189 393.19716973 -0.47540778 C404.85554448 -0.48131701 416.51382391 -0.50450901 428.17215979 -0.53416017 C439.89195251 -0.56359895 451.61162738 -0.57443442 463.3314582 -0.56750689 C469.68189354 -0.56429846 476.03204903 -0.56928156 482.38243484 -0.59602737 C488.19523316 -0.62033064 494.007563 -0.62160607 499.82038272 -0.60449447 C501.92417226 -0.60237911 504.02799085 -0.6087461 506.1317231 -0.62441591 C508.9914103 -0.64447941 511.84940602 -0.63367078 514.70906734 -0.61523914 C515.52610123 -0.62837421 516.34313512 -0.64150928 517.18492761 -0.65504238 C526.81894358 -0.51469853 533.5055553 4.93534335 540.125 11.4375 C541.42945226 12.68644366 542.73414666 13.93513445 544.0390625 15.18359375 C544.69551758 15.81765137 545.35197266 16.45170898 546.02832031 17.10498047 C549.15143293 20.10666449 552.32699771 23.05126315 555.5 26 C556.75027628 27.16637058 558.00027579 28.33303791 559.25 29.5 C560.178125 30.36625 560.178125 30.36625 561.125 31.25 C581.75 50.5 581.75 50.5 583.62646484 52.25146484 C584.87145204 53.413388 586.1165684 54.57517277 587.36181641 55.73681641 C590.5646073 58.7249138 593.76484297 61.71567758 596.9609375 64.7109375 C603.56475012 70.89542151 610.18194961 77.05037337 617 83 C612.74621979 87.62555368 607.9213951 91.02166287 602.75 94.5625 C600.94638494 95.8108662 599.14300326 97.05956964 597.33984375 98.30859375 C595.98995361 99.24034424 595.98995361 99.24034424 594.61279297 100.19091797 C590.82859732 102.81107212 587.06914086 105.46555644 583.3125 108.125 C581.92585249 109.1055695 580.5391339 110.0860385 579.15234375 111.06640625 C578.47026855 111.54867676 577.78819336 112.03094727 577.08544922 112.52783203 C574.95631424 114.03083881 572.82424274 115.52959505 570.69140625 117.02734375 C569.97710449 117.52967529 569.26280273 118.03200684 568.52685547 118.54956055 C567.10620546 119.54839968 565.68467259 120.54598445 564.26220703 121.54223633 C560.70446323 124.04526546 557.19459061 126.59267063 553.73828125 129.234375 C553.05652832 129.7512085 552.37477539 130.26804199 551.67236328 130.80053711 C550.37975607 131.78517628 549.09506799 132.78032768 547.81982422 133.78735352 C543.51778657 137.05509708 543.51778657 137.05509708 540.99243164 136.78637695 C537.53942376 135.42353681 535.26260639 132.51888916 532.75 129.875 C531.58786565 128.68041286 530.42381192 127.48768986 529.2578125 126.296875 C528.69739258 125.72388672 528.13697266 125.15089844 527.55957031 124.56054688 C525.07773618 122.07715869 522.43179428 119.81026878 519.7578125 117.5390625 C517.30862076 115.39465906 515.06118444 113.07138779 512.78125 110.75 C510.91610326 108.91757513 508.98072254 107.20646865 507 105.5 C503.7746484 102.72123555 500.77441578 99.79774605 497.79296875 96.76171875 C495.26411595 94.27694182 492.59053925 91.97644795 489.89453125 89.67578125 C488 88 488 88 486.39844441 85.92700171 C483.01268076 83.20675007 479.88933294 83.44522572 475.73035812 83.49219131 C474.88493265 83.48588756 474.03950718 83.47958381 473.16846275 83.47308904 C470.31636108 83.4567386 467.46508938 83.46902493 464.61297607 83.48101807 C462.5553677 83.47514659 460.4977637 83.46752153 458.44016767 83.458287 C452.77114493 83.43794905 447.10237131 83.44260092 441.43332863 83.45119452 C435.32561006 83.45612346 429.21795534 83.4380743 423.11026001 83.42277527 C412.52332317 83.39942027 401.93646509 83.39057765 391.34951019 83.39188385 C380.24426754 83.3931934 369.1390805 83.38626764 358.03385162 83.36830902 C357.34372589 83.36719763 356.65360015 83.36608624 355.94256151 83.36494118 C352.43785478 83.3592542 348.93314831 83.35341976 345.42844191 83.34752855 C320.59552923 83.30605117 295.76263042 83.28308996 270.9296875 83.27099609 C246.80271833 83.25920373 222.67577994 83.23903782 198.54882812 83.20751953 C197.80531439 83.20655158 197.06180065 83.20558363 196.29575619 83.20458635 C188.8291813 83.19485665 181.36260664 83.18495655 173.89603214 83.17493158 C158.68534835 83.15451291 143.47466318 83.13523171 128.26397705 83.11663818 C127.56459273 83.11578185 126.8652084 83.11492553 126.14463061 83.11404325 C79.42977032 83.05697578 32.71488659 83.02650828 -14 83 C-12.51110009 72.05905919 -10.93044949 61.17301726 -8.82568359 50.33203125 C-7.80039288 45.02523593 -6.88133963 39.70014992 -5.95703125 34.375 C-5.69428909 32.86232544 -5.69428909 32.86232544 -5.42623901 31.3190918 C-4.88749353 28.21287148 -4.34996755 25.10644166 -3.8125 22 C-3.44085471 19.85675358 -3.06911058 17.71352429 -2.69726562 15.5703125 C-1.79703984 10.38040494 -0.8980255 5.19028871 0 0 Z " fill="#FEB800" transform="translate(2428,2131)"/>
<path d="M0 0 C122.1 0 244.2 0 370 0 C367.74076829 19.20346955 367.74076829 19.20346955 366.1875 26.625 C364.11529168 36.97611249 362.45045337 47.38241567 360.83862305 57.81298828 C360.64308838 59.05935059 360.44755371 60.30571289 360.24609375 61.58984375 C360.07779053 62.68159912 359.9094873 63.77335449 359.73608398 64.89819336 C358.64783414 70.96243406 357.29093222 76.97564966 356 83 C233.9 83 111.8 83 -14 83 C-12.87449541 72.87045872 -12.87449541 72.87045872 -12.1328125 68.46875 C-11.97103516 67.50243652 -11.80925781 66.53612305 -11.64257812 65.54052734 C-11.47177734 64.53715332 -11.30097656 63.5337793 -11.125 62.5 C-10.94646484 61.44119629 -10.76792969 60.38239258 -10.58398438 59.29150391 C-7.85672375 43.16987457 -4.93426964 27.08502464 -2 11 C-1.34 7.37 -0.68 3.74 0 0 Z " fill="#F2F3F5" transform="translate(1038,2367)"/>
<path d="M0 0 C121.77 0 243.54 0 369 0 C369 7.88263666 369 7.88263666 368.484375 11.1015625 C368.36989014 11.82657959 368.25540527 12.55159668 368.13745117 13.29858398 C368.00959229 14.06630127 367.8817334 14.83401855 367.75 15.625 C367.61505127 16.45781494 367.48010254 17.29062988 367.34106445 18.14868164 C366.3873093 23.93227449 365.30817267 29.68408844 364.1875 35.4375 C361.19699497 51.24445515 358.64474467 67.13153199 356 83 C233.9 83 111.8 83 -14 83 C-11.73042717 62.5738445 -11.73042717 62.5738445 -10.25 55.125 C-8.89968455 48.04409363 -7.64395285 40.95292217 -6.4765625 33.83984375 C-6.27855042 32.63539612 -6.27855042 32.63539612 -6.07653809 31.40661621 C-5.54332826 28.15729289 -5.01136794 24.90779676 -4.48693848 21.65704346 C-4.11717951 19.36583087 -3.74248762 17.07546671 -3.3671875 14.78515625 C-3.20484116 13.76288185 -3.20484116 13.76288185 -3.03921509 12.71995544 C-2.31192574 8.31020441 -1.24289411 4.3501294 0 0 Z " fill="#F2F3F5" transform="translate(2388,2367)"/>
<path d="M0 0 C122.1 0 244.2 0 370 0 C367.8718183 14.36522647 365.67624068 28.7267164 363 43 C360.69 56.2 358.38 69.4 356 83 C233.9 83 111.8 83 -14 83 C-12.85860018 73.29810157 -11.74091531 63.99093646 -9.84765625 54.4765625 C-8.80790723 49.10718564 -7.9440462 43.70966923 -7.0625 38.3125 C-4.95767705 25.4921222 -2.54780453 12.73902265 0 0 Z " fill="#FEB800" transform="translate(1079,2131)"/>
<path d="M0 0 C27.00496343 -0.89774915 49.94794437 5.33575546 70.90771484 23.07373047 C71.79523437 23.74275391 71.79523437 23.74275391 72.70068359 24.42529297 C91.07916214 38.6566089 101.0551001 62.70946982 104.22021484 85.01123047 C105.19054156 93.11498232 104.88502307 100.9867517 103.90771484 109.07373047 C103.82924316 109.73373047 103.75077148 110.39373047 103.66992188 111.07373047 C102.26734038 121.93379435 98.82349348 131.32589056 93.90771484 141.07373047 C93.38306641 142.12302734 92.85841797 143.17232422 92.31787109 144.25341797 C79.97091547 167.01528726 58.86701983 182.61437045 34.36474609 190.10888672 C33.22392578 190.42728516 32.08310547 190.74568359 30.90771484 191.07373047 C29.61414062 191.44304688 29.61414062 191.44304688 28.29443359 191.81982422 C13.26288507 195.29601965 -6.05045709 194.59018017 -20.65478516 189.57373047 C-21.42072998 189.31164795 -22.1866748 189.04956543 -22.97583008 188.77954102 C-37.1466812 183.72090881 -49.28090196 176.53588503 -60.09228516 166.07373047 C-61.43226563 164.77822266 -61.43226563 164.77822266 -62.79931641 163.45654297 C-73.30013999 152.58472255 -80.41007207 139.37668208 -85.09228516 125.07373047 C-85.30256348 124.43274414 -85.5128418 123.79175781 -85.72949219 123.13134766 C-93.26055752 99.05340481 -89.7070274 73.01160557 -78.19384766 50.81201172 C-75.2960239 45.52074074 -71.93875757 40.71880383 -68.09228516 36.07373047 C-67.40521484 35.23583984 -66.71814453 34.39794922 -66.01025391 33.53466797 C-51.23582956 16.33777044 -30.13611756 3.2844962 -7.34228516 0.26123047 C-4.8950912 0.12550375 -2.44914191 0.08630582 0 0 Z " fill="#FEB800" transform="translate(3692.09228515625,2527.92626953125)"/>
<path d="M0 0 C99.66 0 199.32 0 302 0 C299.59866545 16.20900823 297.0956547 31.9754345 294 48 C292.02 59.55 290.04 71.1 288 83 C188.34 83 88.68 83 -14 83 C-13.33977513 76.39775126 -12.56022808 70.09991904 -11.3125 63.625 C-9.08991362 51.7813836 -7.13288593 39.89714885 -5.19458008 28.00439453 C-4.95137233 26.52505891 -4.7081283 25.04572925 -4.46484375 23.56640625 C-4.254646 22.27677979 -4.04444824 20.98715332 -3.82788086 19.65844727 C-2.65977136 13.08554919 -1.30924918 6.54624591 0 0 Z " fill="#F2F3F5" transform="translate(2408,2249)"/>
<path d="M0 0 C99.66 0 199.32 0 302 0 C300.87505021 12.37444765 300.87505021 12.37444765 300.10791016 16.73657227 C299.85226791 18.20979698 299.85226791 18.20979698 299.59146118 19.71278381 C299.40916962 20.73697922 299.22687805 21.76117462 299.0390625 22.81640625 C298.84782806 23.91234604 298.65659363 25.00828583 298.45956421 26.13743591 C297.85222144 29.61320481 297.23883866 33.08787304 296.625 36.5625 C296.02132374 40.00263104 295.41891383 43.44298165 294.8168335 46.88339233 C294.42604152 49.11485859 294.03433088 51.34616418 293.6416626 53.57730103 C292.34394613 60.96581397 291.08976372 68.36035946 289.9190979 75.77015686 C289.10813469 80.78373063 289.10813469 80.78373063 288 83 C188.67 83 89.34 83 -13 83 C-13 75.12471655 -13 75.12471655 -12.44921875 71.9765625 C-12.32933594 71.27474854 -12.20945312 70.57293457 -12.0859375 69.84985352 C-11.95445313 69.11565186 -11.82296875 68.3814502 -11.6875 67.625 C-11.55214844 66.84116943 -11.41679688 66.05733887 -11.27734375 65.24975586 C-10.8581646 62.83195576 -10.4305245 60.41580357 -10 58 C-9.87189941 57.27925293 -9.74379883 56.55850586 -9.61181641 55.81591797 C-9.4885498 55.12256348 -9.3652832 54.42920898 -9.23828125 53.71484375 C-9.11622314 53.02817627 -8.99416504 52.34150879 -8.8684082 51.6340332 C-8.62150826 50.24573231 -8.37394274 48.85754963 -8.12573242 47.46948242 C-7.17952229 42.1359068 -6.32827737 36.79052598 -5.5 31.4375 C-4.35861059 24.06734257 -3.05992464 16.74100687 -1.6484375 9.41796875 C-1.05440452 6.28677081 -0.52394748 3.1436849 0 0 Z " fill="#F2F3F5" transform="translate(1058,2249)"/>
<path d="M0 0 C8.50728699 6.15728024 14.22226313 13.79071471 17 24 C17.38021674 27.32552878 17.37616112 30.59401775 17.3125 33.9375 C17.31572266 34.77990234 17.31894531 35.62230469 17.32226562 36.49023438 C17.19151836 51.93029805 11.52372569 64.92473912 1.0078125 76.12109375 C-4.87353487 81.81932224 -11.41614204 85.04423997 -19 88 C-20.01320313 88.4021875 -20.01320313 88.4021875 -21.046875 88.8125 C-32.08989383 92.33062989 -45.63658155 90.5964473 -56 86 C-59.01588362 84.29537013 -61.48839026 82.37854432 -64 80 C-64.92232422 79.15501953 -64.92232422 79.15501953 -65.86328125 78.29296875 C-74.1857758 69.8279047 -76.47173556 59.98731109 -76.5625 48.5 C-76.34558379 33.11122748 -71.46042482 20.24562382 -60.9609375 8.875 C-45.85630016 -5.56768112 -18.50277739 -12.4052712 0 0 Z " fill="#FCB701" transform="translate(2242,2657)"/>
<path d="M0 0 C4.90719383 -0.0750159 9.81404271 -0.1290041 14.72167969 -0.16479492 C16.38580145 -0.17973924 18.04988483 -0.20010223 19.71386719 -0.22631836 C35.2606584 -0.46485216 49.3059454 0.63479275 61.25 11.6875 C70.20026652 21.172643 72.53129223 32.56981865 72.3125 45.24609375 C71.14851516 59.22846168 65.98117766 72.25253008 55.6796875 81.9296875 C50.61279718 85.84434037 44.97253235 88.72093979 39 91 C38.30769287 91.28174072 37.61538574 91.56348145 36.90209961 91.85375977 C26.79095147 95.30746216 15.84665686 94.32118433 5.3125 94.1875 C3.24284826 94.17242854 1.17318593 94.15874449 -0.89648438 94.14648438 C-5.93125426 94.11366789 -10.96550863 94.06202071 -16 94 C-15.48438596 83.25399133 -13.40974374 72.88711874 -11.36279297 62.34555054 C-10.3263024 57.00395923 -9.30981154 51.6586019 -8.296875 46.3125 C-8.09678833 45.25673264 -7.89670166 44.20096527 -7.69055176 43.11320496 C-5.73527128 32.72191511 -4.0181767 22.30017898 -2.40917969 11.8503418 C-2.14476074 10.13584839 -2.14476074 10.13584839 -1.875 8.38671875 C-1.72804688 7.40920654 -1.58109375 6.43169434 -1.4296875 5.42456055 C-1 3 -1 3 0 0 Z " fill="#FBB701" transform="translate(779,2652)"/>
<path d="M0 0 C4.90719383 -0.0750159 9.81404271 -0.1290041 14.72167969 -0.16479492 C16.38580145 -0.17973924 18.04988483 -0.20010223 19.71386719 -0.22631836 C35.30977072 -0.46560569 49.46733533 0.59700712 61.3125 11.875 C69.83698545 20.89095678 71.88727545 30.83827365 72 43 C71.13963011 55.71435501 67.89340835 66.89797375 60 77 C59.52175781 77.61617187 59.04351563 78.23234375 58.55078125 78.8671875 C53.37192843 84.73742369 46.20036276 88.18133096 39 91 C38.30479248 91.28464111 37.60958496 91.56928223 36.89331055 91.86254883 C26.78889946 95.31127464 15.83888383 94.32108568 5.3125 94.1875 C3.24284826 94.17242854 1.17318593 94.15874449 -0.89648438 94.14648438 C-5.93125426 94.11366789 -10.96550863 94.06202071 -16 94 C-15.5150404 86.79892277 -14.74193499 79.85847174 -13.1875 72.8125 C-11.55692461 65.07174652 -10.20775282 57.31750897 -9 49.5 C-7.69056098 41.06518041 -6.23758593 32.68796266 -4.48242188 24.33398438 C-2.79478607 16.25795897 -1.41227372 8.12775543 0 0 Z " fill="#FBB701" transform="translate(1912,2652)"/>
<path d="M0 0 C5.94 0 11.88 0 18 0 C24.71859952 12.57028297 31.183188 25.2552475 37.5625 38 C37.9710321 38.81456665 38.37956421 39.6291333 38.80047607 40.46838379 C39.97478021 42.8111008 41.14612048 45.15527351 42.31640625 47.5 C42.67329025 48.21178406 43.03017426 48.92356812 43.39787292 49.65692139 C44.76993169 52.41404303 46.02466641 55.07399923 47 58 C47.24907104 56.56503174 47.24907104 56.56503174 47.50317383 55.10107422 C48.13225515 51.48112465 48.76497526 47.86181829 49.39868164 44.24267578 C49.67015041 42.68945801 49.94069007 41.13607751 50.21020508 39.58251953 C51.75477358 30.68327381 53.39480055 21.82959312 55.33984375 13.0078125 C56.28888901 8.68376012 57.14447928 4.34341287 58 0 C64.6 0 71.2 0 78 0 C76.89568581 11.14353406 75.10130967 21.91580465 72.82421875 32.87841797 C71.38975698 39.84687101 70.22999189 46.74084348 69.45703125 53.81640625 C69.02488759 56.82663774 68.3123719 59.67191813 67.54614258 62.6105957 C66.36352277 67.78462343 65.70478796 73.06401696 64.9375 78.3125 C64.59484764 80.64228129 64.24990415 82.9717271 63.90234375 85.30078125 C63.75273193 86.32341064 63.60312012 87.34604004 63.44897461 88.3996582 C63 91 63 91 62 94 C55.73 94 49.46 94 43 94 C33.76 75.52 24.52 57.04 15 38 C11.84421559 52.00415919 11.84421559 52.00415919 9.078125 66.0703125 C8.92841248 66.88829315 8.77869995 67.7062738 8.62445068 68.54904175 C8.16308997 71.07378926 7.7064184 73.59935494 7.25 76.125 C6.9313061 77.87375563 6.61229695 79.62245384 6.29296875 81.37109375 C5.52445735 85.57998781 4.76234582 89.7899666 4 94 C-2.6 94 -9.2 94 -16 94 C-15.57232632 85.87420012 -14.31639962 78.20108665 -12.65332031 70.26269531 C-11.22795675 63.36962697 -10.07461339 56.45572773 -9 49.5 C-7.67713359 40.97868716 -6.17935654 32.52458387 -4.43847656 24.07910156 C-2.79118127 16.07936216 -1.38773616 8.04886975 0 0 Z " fill="#FBB701" transform="translate(1792,2652)"/>
<path d="M0 0 C6.77083671 4.75616214 11.60662082 10.1619696 14.25390625 18.04296875 C14.90684831 21.85752502 14.69921875 25.774496 14.69921875 29.64453125 C8.42921875 29.64453125 2.15921875 29.64453125 -4.30078125 29.64453125 C-5.29078125 26.67453125 -6.28078125 23.70453125 -7.30078125 20.64453125 C-10.30546721 16.92820914 -12.79724469 15.10324394 -17.30078125 13.64453125 C-26.74237384 12.67442735 -33.65983277 13.28346184 -41.16015625 19.08203125 C-47.02553819 24.29570408 -51.74907695 32.78180008 -52.49365234 40.6940918 C-52.58141954 43.24013836 -52.63531969 45.78479205 -52.67578125 48.33203125 C-52.71316406 49.20537109 -52.75054688 50.07871094 -52.7890625 50.97851562 C-52.87636169 57.47260509 -51.42164323 61.60699393 -47.30078125 66.64453125 C-42.95513206 70.77289798 -39.02815761 72.71835129 -33.05078125 72.95703125 C-24.99352956 72.71651627 -19.24236776 70.10473623 -13.125 64.94921875 C-10.48098285 61.80510793 -10.48098285 61.80510793 -7.30078125 53.64453125 C-14.89078125 53.64453125 -22.48078125 53.64453125 -30.30078125 53.64453125 C-29.63411458 48.31119792 -28.96744792 42.97786458 -28.30078125 37.64453125 C-14.11078125 37.64453125 0.07921875 37.64453125 14.69921875 37.64453125 C14.04003081 42.91803476 13.32241756 48.05261831 12.38671875 53.26953125 C12.25990723 53.97883789 12.1330957 54.68814453 12.00244141 55.41894531 C11.57067629 57.82795738 11.13520331 60.23627935 10.69921875 62.64453125 C10.5295459 63.58458008 10.35987305 64.52462891 10.18505859 65.49316406 C9.31527701 70.3098071 8.4430816 75.12601297 7.56640625 79.94140625 C7.42315918 80.72870117 7.27991211 81.51599609 7.13232422 82.32714844 C6.6757111 84.77031175 6.18665879 87.20733107 5.69921875 89.64453125 C0.74921875 89.64453125 -4.20078125 89.64453125 -9.30078125 89.64453125 C-9.30078125 86.67453125 -9.30078125 83.70453125 -9.30078125 80.64453125 C-9.88085938 81.04285156 -10.4609375 81.44117187 -11.05859375 81.8515625 C-22.19315484 89.40322027 -30.86846096 91.60883331 -44.30078125 90.64453125 C-54.59764152 88.40608337 -63.41167158 82.38695602 -69.30078125 73.64453125 C-76.6365666 62.05050638 -76.00619823 46.15565169 -73.23828125 33.08203125 C-68.61149205 17.92984483 -59.71085283 6.87153661 -45.8671875 -0.68359375 C-31.52226119 -7.34640181 -13.90757995 -8.19342996 0 0 Z " fill="#FBB701" transform="translate(2368.30078125,2656.35546875)"/>
<path d="M0 0 C5.90405801 -0.12469579 11.80732983 -0.21485152 17.71240234 -0.2746582 C19.71611911 -0.29962011 21.71974655 -0.33360222 23.72314453 -0.37719727 C37.52520779 -0.6697597 49.90374986 -0.75128672 60.6015625 9.3203125 C66.92327239 16.91342773 67.72872859 25.45151209 67 35 C65.28632596 43.74205336 60.75955394 50.28275896 54 56 C43.55123723 62.40456538 32.92733779 63.30488216 20.9375 63.125 C19.20983398 63.11146484 19.20983398 63.11146484 17.44726562 63.09765625 C14.63128807 63.07428714 11.81575842 63.04152565 9 63 C8.95101563 63.90621094 8.90203125 64.81242187 8.8515625 65.74609375 C8.42497397 72.69654475 7.78125055 79.27083124 6 86 C5.34 88.64 4.68 91.28 4 94 C-2.6 94 -9.2 94 -16 94 C-15.44902764 83.24685617 -13.41180049 72.8977108 -11.36279297 62.34555054 C-10.3263024 57.00395923 -9.30981154 51.6586019 -8.296875 46.3125 C-8.09678833 45.25673264 -7.89670166 44.20096527 -7.69055176 43.11320496 C-5.73527128 32.72191511 -4.0181767 22.30017898 -2.40917969 11.8503418 C-2.14476074 10.13584839 -2.14476074 10.13584839 -1.875 8.38671875 C-1.72804688 7.40920654 -1.58109375 6.43169434 -1.4296875 5.42456055 C-1 3 -1 3 0 0 Z " fill="#FBB701" transform="translate(1070,2652)"/>
<path d="M0 0 C8.25 0 16.5 0 25 0 C28.38806627 16.66660964 31.57115294 33.35158623 34.53979492 50.09765625 C35.19453046 53.78964403 35.85382138 57.48079829 36.51367188 61.171875 C36.9403682 63.56766132 37.36680986 65.96349302 37.79296875 68.359375 C38.08206367 69.97848785 38.08206367 69.97848785 38.3769989 71.63031006 C39.69363682 79.07182862 40.8718458 86.52753601 42 94 C35.07 94 28.14 94 21 94 C18 80.75 18 80.75 18 74 C6.12 74 -5.76 74 -18 74 C-18.66 75.98 -19.32 77.96 -20 80 C-20.54419827 81.23048087 -21.11582819 82.44958867 -21.7265625 83.6484375 C-22.00580566 84.20192871 -22.28504883 84.75541992 -22.57275391 85.32568359 C-22.91999512 86.00195801 -23.26723633 86.67823242 -23.625 87.375 C-24.73875 89.56125 -25.8525 91.7475 -27 94 C-34.26 94 -41.52 94 -49 94 C-47.42948188 89.28844563 -45.68556117 85.21551832 -43.359375 80.890625 C-42.82154137 79.87758804 -42.82154137 79.87758804 -42.27284241 78.84408569 C-41.10305936 76.64362809 -39.92665421 74.44678988 -38.75 72.25 C-37.93024028 70.71160819 -37.11082657 69.17303195 -36.29174805 67.63427734 C-33.86827784 63.08569824 -31.43584355 58.54196297 -29 54 C-28.66301086 53.37154175 -28.32602173 52.7430835 -27.9788208 52.09558105 C-24.82167595 46.20991236 -21.65404533 40.32994688 -18.48046875 34.453125 C-14.51214276 27.10258546 -10.56792831 19.739183 -6.625 12.375 C-6.28941071 11.74829407 -5.95382141 11.12158813 -5.60806274 10.47589111 C-3.73832399 6.98413305 -1.86908838 3.4921063 0 0 Z " fill="#FBB701" transform="translate(1194,2652)"/>
<path d="M0 0 C8.25 0 16.5 0 25 0 C27.26517857 10.3885776 29.34327905 20.70981212 30.92504883 31.22192383 C31.80500374 36.98905886 32.97302012 42.65054802 34.25 48.34375 C35.31150172 53.51857087 36.08090463 58.72866975 36.87060547 63.95068359 C37.79217399 69.94390646 38.96810103 75.82081837 40.3515625 81.7265625 C41.15367139 85.77576278 41.5441518 89.89736621 42 94 C35.07 94 28.14 94 21 94 C18 80.75 18 80.75 18 74 C6.12 74 -5.76 74 -18 74 C-18.66 75.98 -19.32 77.96 -20 80 C-20.54419827 81.23048087 -21.11582819 82.44958867 -21.7265625 83.6484375 C-22.00580566 84.20192871 -22.28504883 84.75541992 -22.57275391 85.32568359 C-22.91999512 86.00195801 -23.26723633 86.67823242 -23.625 87.375 C-24.73875 89.56125 -25.8525 91.7475 -27 94 C-34.26 94 -41.52 94 -49 94 C-47.42948188 89.28844563 -45.68556117 85.21551832 -43.359375 80.890625 C-42.82154137 79.87758804 -42.82154137 79.87758804 -42.27284241 78.84408569 C-41.10305936 76.64362809 -39.92665421 74.44678988 -38.75 72.25 C-37.93024028 70.71160819 -37.11082657 69.17303195 -36.29174805 67.63427734 C-33.86827784 63.08569824 -31.43584355 58.54196297 -29 54 C-28.66301086 53.37154175 -28.32602173 52.7430835 -27.9788208 52.09558105 C-24.82167595 46.20991236 -21.65404533 40.32994688 -18.48046875 34.453125 C-14.51214276 27.10258546 -10.56792831 19.739183 -6.625 12.375 C-6.28941071 11.74829407 -5.95382141 11.12158813 -5.60806274 10.47589111 C-3.73832399 6.98413305 -1.86908838 3.4921063 0 0 Z " fill="#FBB701" transform="translate(1699,2652)"/>
<path d="M0 0 C6.93 0 13.86 0 21 0 C19.68052802 8.0267879 18.31674692 16.04578317 16.9375 24.0625 C16.67598145 25.59789429 16.67598145 25.59789429 16.40917969 27.16430664 C16.24192383 28.13231201 16.07466797 29.10031738 15.90234375 30.09765625 C15.75273193 30.96914307 15.60312012 31.84062988 15.44897461 32.73852539 C15 35 15 35 14 38 C25.88 38 37.76 38 50 38 C50.66 33.38 51.32 28.76 52 24 C52.66844663 19.89094505 53.34962782 15.78854797 54.0625 11.6875 C54.23587891 10.66205078 54.40925781 9.63660156 54.58789062 8.58007812 C54.75611328 7.60876953 54.92433594 6.63746094 55.09765625 5.63671875 C55.24726807 4.76748779 55.39687988 3.89825684 55.55102539 3.00268555 C56 1 56 1 57 0 C58.4887186 -0.08669432 59.981445 -0.10703494 61.47265625 -0.09765625 C62.37177734 -0.09443359 63.27089844 -0.09121094 64.19726562 -0.08789062 C65.61555664 -0.07532227 65.61555664 -0.07532227 67.0625 -0.0625 C68.4865918 -0.05573242 68.4865918 -0.05573242 69.93945312 -0.04882812 C72.29303065 -0.0370011 74.64648477 -0.02052025 77 0 C76.28385399 7.87760607 74.87952115 15.60509924 73.47167969 23.38085938 C72.5814201 28.3242884 71.71473586 33.27189588 70.84375 38.21875 C70.45712475 40.41017275 70.07040471 42.60157877 69.68359375 44.79296875 C69.39137939 46.4488501 69.39137939 46.4488501 69.09326172 48.13818359 C66.39550781 63.42545573 63.69775391 78.71272786 61 94 C54.07 94 47.14 94 40 94 C41.98 81.79 43.96 69.58 46 57 C28.675 56.505 28.675 56.505 11 56 C10.67 59.3 10.34 62.6 10 66 C9.67 66.66 9.34 67.32 9 68 C8.73838431 69.36244018 8.51598942 70.73256942 8.31640625 72.10546875 C8.19330078 72.92466797 8.07019531 73.74386719 7.94335938 74.58789062 C7.69233649 76.30128274 7.44231262 78.01482157 7.19335938 79.72851562 C7.00676758 80.96698242 7.00676758 80.96698242 6.81640625 82.23046875 C6.65313843 83.35038208 6.65313843 83.35038208 6.48657227 84.49291992 C5.86248591 87.70854599 4.89988405 90.85040582 4 94 C-2.6 94 -9.2 94 -16 94 C-15.43745785 84.90556856 -14.04850882 76.12162012 -12.33209229 67.19204712 C-11.53591029 63.04725482 -10.75984705 58.89870944 -9.984375 54.75 C-9.82240631 53.88482254 -9.66043762 53.01964508 -9.49356079 52.12825012 C-7.25271334 40.08360881 -5.24301047 27.99841604 -3.22216797 15.9152832 C-3.00932159 14.65028992 -3.00932159 14.65028992 -2.79217529 13.35974121 C-2.52654092 11.78035137 -2.26294999 10.20061596 -2.00177002 8.6204834 C-1.50148708 5.64857165 -0.95490894 2.86472683 0 0 Z " fill="#FAB601" transform="translate(1494,2652)"/>
<path d="M0 0 C5.29271228 4.34462643 9.96797018 9.27739384 12.24609375 15.84375 C12.24609375 18.81375 12.24609375 21.78375 12.24609375 24.84375 C5.64609375 24.84375 -0.95390625 24.84375 -7.75390625 24.84375 C-8.41390625 22.53375 -9.07390625 20.22375 -9.75390625 17.84375 C-15.01202493 12.72045487 -19.74109199 12.50809434 -26.79296875 12.55078125 C-30.93380537 12.96049464 -32.72090804 14.05667057 -35.75390625 16.84375 C-37.1982148 19.73236709 -37.13079131 21.64022701 -36.75390625 24.84375 C-31.93706805 31.58732348 -23.63573897 33.24983498 -16.10083008 35.64794922 C-6.37593007 38.77118688 1.31181921 42.17847715 7.24609375 50.84375 C9.81522598 58.55114668 8.96793337 67.32486962 5.55859375 74.62890625 C0.30673904 83.49141107 -7.9470689 87.14112794 -17.55078125 89.95703125 C-29.5759678 92.81746696 -42.26613683 91.73425112 -52.984375 85.55859375 C-59.41519216 81.22714279 -63.43979739 75.36795104 -66.12890625 68.15625 C-66.75390625 64.84375 -66.75390625 64.84375 -66.75390625 58.84375 C-60.15390625 58.84375 -53.55390625 58.84375 -46.75390625 58.84375 C-46.25890625 60.390625 -45.76390625 61.9375 -45.25390625 63.53125 C-43.35694595 68.20732347 -41.51091495 70.72692357 -37.0234375 73.06640625 C-30.0688186 75.448453 -24.05594008 74.03630505 -17.56640625 71.01171875 C-15.448118 69.81725974 -15.448118 69.81725974 -13.75390625 66.84375 C-13.17048272 63.38605809 -13.17048272 63.38605809 -13.75390625 59.84375 C-15.82346754 57.45412195 -15.82346754 57.45412195 -18.75390625 55.84375 C-20.02234375 55.0703125 -20.02234375 55.0703125 -21.31640625 54.28125 C-24.37148622 53.0036711 -27.03867617 52.29828249 -30.25390625 51.59375 C-40.26692754 49.2061257 -49.50343837 45.24420151 -55.75390625 36.84375 C-59.49884992 30.51608657 -59.65537636 24.07268176 -58.75390625 16.84375 C-56.61259075 9.89637083 -52.8856689 4.72068061 -46.75390625 0.84375 C-45.64595703 0.11478516 -45.64595703 0.11478516 -44.515625 -0.62890625 C-32.23818812 -7.15868379 -11.87303443 -7.48018811 0 0 Z " fill="#FBB701" transform="translate(2941.75390625,2656.15625)"/>
<path d="M0 0 C5.29271228 4.34462643 9.96797018 9.27739384 12.24609375 15.84375 C12.24609375 18.81375 12.24609375 21.78375 12.24609375 24.84375 C5.64609375 24.84375 -0.95390625 24.84375 -7.75390625 24.84375 C-8.41390625 22.53375 -9.07390625 20.22375 -9.75390625 17.84375 C-15.01202493 12.72045487 -19.74109199 12.50809434 -26.79296875 12.55078125 C-30.93380537 12.96049464 -32.72090804 14.05667057 -35.75390625 16.84375 C-37.1982148 19.73236709 -37.13079131 21.64022701 -36.75390625 24.84375 C-31.93706805 31.58732348 -23.63573897 33.24983498 -16.10083008 35.64794922 C-6.37593007 38.77118688 1.31181921 42.17847715 7.24609375 50.84375 C9.81522598 58.55114668 8.96793337 67.32486962 5.55859375 74.62890625 C0.30673904 83.49141107 -7.9470689 87.14112794 -17.55078125 89.95703125 C-29.5759678 92.81746696 -42.26613683 91.73425112 -52.984375 85.55859375 C-59.41519216 81.22714279 -63.43979739 75.36795104 -66.12890625 68.15625 C-66.75390625 64.84375 -66.75390625 64.84375 -66.75390625 58.84375 C-60.15390625 58.84375 -53.55390625 58.84375 -46.75390625 58.84375 C-46.25890625 60.390625 -45.76390625 61.9375 -45.25390625 63.53125 C-43.35694595 68.20732347 -41.51091495 70.72692357 -37.0234375 73.06640625 C-30.0688186 75.448453 -24.05594008 74.03630505 -17.56640625 71.01171875 C-15.448118 69.81725974 -15.448118 69.81725974 -13.75390625 66.84375 C-13.17048272 63.38605809 -13.17048272 63.38605809 -13.75390625 59.84375 C-15.82346754 57.45412195 -15.82346754 57.45412195 -18.75390625 55.84375 C-20.02234375 55.0703125 -20.02234375 55.0703125 -21.31640625 54.28125 C-24.37148622 53.0036711 -27.03867617 52.29828249 -30.25390625 51.59375 C-40.26692754 49.2061257 -49.50343837 45.24420151 -55.75390625 36.84375 C-59.49884992 30.51608657 -59.65537636 24.07268176 -58.75390625 16.84375 C-56.61259075 9.89637083 -52.8856689 4.72068061 -46.75390625 0.84375 C-45.64595703 0.11478516 -45.64595703 0.11478516 -44.515625 -0.62890625 C-32.23818812 -7.15868379 -11.87303443 -7.48018811 0 0 Z " fill="#FBB701" transform="translate(2546.75390625,2656.15625)"/>
<path d="M0 0 C5.29271228 4.34462643 9.96797018 9.27739384 12.24609375 15.84375 C12.24609375 18.81375 12.24609375 21.78375 12.24609375 24.84375 C5.64609375 24.84375 -0.95390625 24.84375 -7.75390625 24.84375 C-8.41390625 22.53375 -9.07390625 20.22375 -9.75390625 17.84375 C-15.01202493 12.72045487 -19.74109199 12.50809434 -26.79296875 12.55078125 C-30.93380537 12.96049464 -32.72090804 14.05667057 -35.75390625 16.84375 C-37.1982148 19.73236709 -37.13079131 21.64022701 -36.75390625 24.84375 C-31.93706805 31.58732348 -23.63573897 33.24983498 -16.10083008 35.64794922 C-6.37593007 38.77118688 1.31181921 42.17847715 7.24609375 50.84375 C9.81522598 58.55114668 8.96793337 67.32486962 5.55859375 74.62890625 C0.30673904 83.49141107 -7.9470689 87.14112794 -17.55078125 89.95703125 C-29.5759678 92.81746696 -42.26613683 91.73425112 -52.984375 85.55859375 C-59.41519216 81.22714279 -63.43979739 75.36795104 -66.12890625 68.15625 C-66.75390625 64.84375 -66.75390625 64.84375 -66.75390625 58.84375 C-60.15390625 58.84375 -53.55390625 58.84375 -46.75390625 58.84375 C-45.76390625 61.48375 -44.77390625 64.12375 -43.75390625 66.84375 C-40.5157662 70.66309467 -37.52507851 73.4808584 -32.45703125 74.14453125 C-25.82857546 74.17619585 -19.96096768 73.64992875 -14.75390625 69.09375 C-13.27596882 65.76839079 -13.2409288 63.43459215 -13.75390625 59.84375 C-18.29350259 54.36492684 -26.73650045 52.83388872 -33.265625 50.69140625 C-43.25803138 47.31019198 -51.49512768 44.15347478 -56.87890625 34.67578125 C-59.89896508 28.35253307 -59.90140316 20.62071292 -57.8828125 13.9765625 C-55.2510142 8.29878125 -52.04598401 4.1897729 -46.75390625 0.84375 C-45.64595703 0.11478516 -45.64595703 0.11478516 -44.515625 -0.62890625 C-32.23818812 -7.15868379 -11.87303443 -7.48018811 0 0 Z " fill="#FBB701" transform="translate(1011.75390625,2656.15625)"/>
<path d="M0 0 C1.02480469 -0.01998047 2.04960937 -0.03996094 3.10546875 -0.06054688 C13.31952298 -0.05405764 21.01869902 2.66941839 28.44140625 9.71875 C36.1442774 17.58246997 37.125 23.07110891 37.125 34.4375 C30.525 34.4375 23.925 34.4375 17.125 34.4375 C16.75375 32.890625 16.3825 31.34375 16 29.75 C14.43393632 24.48504305 12.70493257 22.39537312 8.125 19.4375 C2.41137964 17.53295988 -4.62537267 17.36277999 -10.3671875 19.26171875 C-12.28007335 20.23259855 -14.06593909 21.28742415 -15.875 22.4375 C-16.56464844 22.72882812 -17.25429687 23.02015625 -17.96484375 23.3203125 C-20.38589164 24.7363037 -20.79620784 25.87087364 -21.875 28.4375 C-22.349375 29.32824219 -22.82375 30.21898438 -23.3125 31.13671875 C-28.86269492 41.75146654 -32.20369767 52.28037608 -28.6875 64.1875 C-26.55449339 69.80276392 -23.90209429 73.29008814 -18.5625 76.3125 C-12.04726859 78.30019772 -6.23344398 78.04900378 0.125 75.4375 C5.95484535 71.37527254 8.4856623 67.80634097 12.125 61.4375 C18.725 61.4375 25.325 61.4375 32.125 61.4375 C29.60263258 72.78815338 25.05097039 81.90168041 15.125 88.4375 C2.42213042 95.2277612 -10.48575167 97.63443036 -24.6875 94.4375 C-33.38112373 91.63563934 -41.03090716 85.85248748 -45.66015625 77.94921875 C-52.04524432 64.74789518 -53.43990235 49.46692605 -48.8125 35.4375 C-42.37323231 18.63390538 -32.38282584 9.13520808 -16.2734375 1.796875 C-10.93873591 -0.14982533 -5.61918067 -0.03858364 0 0 Z " fill="#FCB701" transform="translate(2807.875,2651.5625)"/>
<path d="M0 0 C1.47243164 -0.03673828 1.47243164 -0.03673828 2.97460938 -0.07421875 C13.05661449 -0.11425318 20.69345835 2.70272797 28.00390625 9.66015625 C35.63792809 17.43587687 36.6875 23.46813002 36.6875 34.375 C30.0875 34.375 23.4875 34.375 16.6875 34.375 C16.31625 32.828125 15.945 31.28125 15.5625 29.6875 C13.99643632 24.42254305 12.26743257 22.33287312 7.6875 19.375 C1.97387964 17.47045988 -5.06287267 17.30027999 -10.8046875 19.19921875 C-12.71757335 20.17009855 -14.50343909 21.22492415 -16.3125 22.375 C-17.00214844 22.66632812 -17.69179687 22.95765625 -18.40234375 23.2578125 C-20.82339164 24.6738037 -21.23370784 25.80837364 -22.3125 28.375 C-22.786875 29.26574219 -23.26125 30.15648438 -23.75 31.07421875 C-29.30019492 41.68896654 -32.64119767 52.21787608 -29.125 64.125 C-26.99199339 69.74026392 -24.33959429 73.22758814 -19 76.25 C-12.60228544 78.20184512 -7.36428643 77.97977858 -1.26171875 75.4140625 C5.32115 71.90495812 7.92124875 67.96593969 11.6875 61.375 C18.2875 61.375 24.8875 61.375 31.6875 61.375 C29.16513258 72.72565338 24.61347039 81.83918041 14.6875 88.375 C2.37624467 94.95592558 -10.89772048 97.97696744 -24.6875 94.25 C-35.06614924 90.48228868 -42.69258555 84.79141009 -47.59375 74.75 C-53.52602891 60.51253062 -52.59464898 44.51786725 -47.125 30.25 C-41.4694528 17.48791972 -31.32870861 7.50983459 -18.3125 2.375 C-12.19012072 0.18236984 -6.47192408 0.00839964 0 0 Z " fill="#FCB701" transform="translate(1413.3125,2651.625)"/>
<path d="M0 0 C24.42 0 48.84 0 74 0 C73 13 73 13 71 18 C62.09 18 53.18 18 44 18 C43.731875 20.248125 43.46375 22.49625 43.1875 24.8125 C41.34307163 39.6755186 38.8267782 54.35248161 35.80151367 69.02124023 C34.5453384 75.13237661 33.42686085 81.24623025 32.44946289 87.40844727 C32.06503131 89.62503677 31.54562736 91.81749056 31 94 C24.4 94 17.8 94 11 94 C11.59183828 82.19910347 13.69393478 70.84336544 15.875 59.25 C16.40762952 56.38341413 16.93835567 53.51647985 17.46905518 50.64953613 C17.81537991 48.78170193 18.16297739 46.91410323 18.51190186 45.04675293 C19.32932874 40.66597024 20.1315884 36.28371789 20.89160156 31.89257812 C21.09657761 30.70858429 21.09657761 30.70858429 21.30569458 29.50067139 C21.55849901 28.0301801 21.80856241 26.55921394 22.0553894 25.08770752 C22.89141269 20.21717462 22.89141269 20.21717462 24 18 C15.09 18 6.18 18 -3 18 C-1.125 4.5 -1.125 4.5 0 0 Z " fill="#FAB602" transform="translate(1268,2652)"/>
<path d="M0 0 C24.42 0 48.84 0 74 0 C73 13 73 13 71 18 C62.09 18 53.18 18 44 18 C43.731875 20.248125 43.46375 22.49625 43.1875 24.8125 C41.34307163 39.6755186 38.8267782 54.35248161 35.80151367 69.02124023 C34.5453384 75.13237661 33.42686085 81.24623025 32.44946289 87.40844727 C32.06503131 89.62503677 31.54562736 91.81749056 31 94 C24.4 94 17.8 94 11 94 C11.39898371 85.62134201 12.54048722 77.83286378 14.27416992 69.65136719 C16.2453032 60.17802891 17.70696157 50.62659575 19.16113281 41.06298828 C19.35674805 39.80470215 19.55236328 38.54641602 19.75390625 37.25 C19.92220947 36.14140625 20.0905127 35.0328125 20.26391602 33.890625 C21.2754357 28.54416472 22.68028948 23.27884208 24 18 C15.09 18 6.18 18 -3 18 C-1.125 4.5 -1.125 4.5 0 0 Z " fill="#FAB602" transform="translate(2595,2652)"/>
<path d="M0 0 C6.93 0 13.86 0 21 0 C20.3797054 4.16741612 19.75393154 8.33388613 19.125 12.5 C18.95097656 13.67304688 18.77695313 14.84609375 18.59765625 16.0546875 C17.78135618 21.43622132 16.90040464 26.70082139 15.49316406 31.95800781 C14.37705249 36.57937277 13.74942425 41.30830605 13 46 C12.57204214 48.57842939 12.14249118 51.15654932 11.7109375 53.734375 C11.51290527 54.92256836 11.31487305 56.11076172 11.11083984 57.33496094 C10.07389323 63.55664062 9.03694661 69.77832031 8 76 C19.88 76 31.76 76 44 76 C42 92 42 92 41 94 C22.19 94 3.38 94 -16 94 C-15.38383811 86.60605735 -14.75935087 79.93741477 -13.1875 72.8125 C-11.55692461 65.07174652 -10.20775282 57.31750897 -9 49.5 C-7.67713359 40.97868716 -6.17935654 32.52458387 -4.43847656 24.07910156 C-2.79118127 16.07936216 -1.38773616 8.04886975 0 0 Z " fill="#FAB601" transform="translate(2090,2652)"/>
<path d="M0 0 C4.71321092 3.61607394 8.25283225 8.45757872 9.64453125 14.26171875 C10.84591117 25.74888564 8.30407069 36.77366525 1.64453125 46.26171875 C-4.20517787 53.15793546 -10.33200507 57.41384115 -19.5234375 58.5234375 C-26.15167606 58.85427901 -31.11573456 57.15695632 -36.08203125 52.71875 C-42.2292908 46.10211842 -43.96224844 39.34818805 -43.703125 30.4140625 C-42.52847141 19.76299009 -37.83129729 10.1258175 -29.91796875 2.88671875 C-21.40004253 -3.76502407 -9.67315041 -5.80389024 0 0 Z " fill="#313F52" transform="translate(2229.35546875,2671.73828125)"/>
<path d="M0 0 C19.81422617 -1.03438536 19.81422617 -1.03438536 27 5 C34.17939965 13.43505597 34.59394176 21.30904829 34 32 C32.47509031 41.00537217 28.23984238 49.03257471 20.97265625 54.6796875 C11.22738917 61.2022623 1.29455283 60.4174578 -10 60 C-8.18666447 45.87507065 -5.75727373 31.91147123 -3.06982422 17.93164062 C-2.94115967 17.26055267 -2.81249512 16.58946472 -2.67993164 15.89804077 C-2.32761021 14.0645997 -1.9722599 12.23174141 -1.61669922 10.39892578 C-0.9894324 6.9417569 -0.47511797 3.48105685 0 0 Z " fill="#2F3F56" transform="translate(1929,2669)"/>
<path d="M0 0 C19.81422617 -1.03438536 19.81422617 -1.03438536 27 5 C34.17939965 13.43505597 34.59394176 21.30904829 34 32 C32.47509031 41.00537217 28.23984238 49.03257471 20.97265625 54.6796875 C11.22738917 61.2022623 1.29455283 60.4174578 -10 60 C-8.18666447 45.87507065 -5.75727373 31.91147123 -3.06982422 17.93164062 C-2.94115967 17.26055267 -2.81249512 16.58946472 -2.67993164 15.89804077 C-2.32761021 14.0645997 -1.9722599 12.23174141 -1.61669922 10.39892578 C-0.9894324 6.9417569 -0.47511797 3.48105685 0 0 Z " fill="#30445F" transform="translate(796,2669)"/>
<path d="M0 0 C6.93 0 13.86 0 21 0 C19.94078731 6.43675404 18.85257784 12.86640962 17.7109375 19.2890625 C16.38927497 26.75032773 15.09544338 34.21625202 13.80859375 41.68359375 C13.61615585 42.7994133 13.42371796 43.91523285 13.22544861 45.06486511 C12.42661081 49.69732367 11.62798252 54.32981692 10.83129883 58.96264648 C10.24161051 62.39067258 9.65023391 65.81840405 9.05859375 69.24609375 C8.88146347 70.27858749 8.70433319 71.31108124 8.52183533 72.37486267 C5.62766698 89.11699905 5.62766698 89.11699905 4 94 C-2.6 94 -9.2 94 -16 94 C-15.43092879 84.56100545 -13.93639865 75.49279642 -12.16152954 66.2255249 C-11.35320738 62.00422334 -10.56395942 57.77935243 -9.7734375 53.5546875 C-9.61758682 52.72417877 -9.46173615 51.89367004 -9.30116272 51.03799438 C-8.0478979 44.33124829 -6.89983088 37.61067803 -5.8125 30.875 C-4.13612519 20.5237226 -2.11463728 10.27109536 0 0 Z " fill="#FAB601" transform="translate(2706,2652)"/>
<path d="M0 0 C6.93 0 13.86 0 21 0 C19.94078731 6.43675404 18.85257784 12.86640962 17.7109375 19.2890625 C16.38927497 26.75032773 15.09544338 34.21625202 13.80859375 41.68359375 C13.61615585 42.7994133 13.42371796 43.91523285 13.22544861 45.06486511 C12.42661081 49.69732367 11.62798252 54.32981692 10.83129883 58.96264648 C10.24161051 62.39067258 9.65023391 65.81840405 9.05859375 69.24609375 C8.88146347 70.27858749 8.70433319 71.31108124 8.52183533 72.37486267 C5.62766698 89.11699905 5.62766698 89.11699905 4 94 C-2.6 94 -9.2 94 -16 94 C-15.44902764 83.24685617 -13.41180049 72.8977108 -11.36279297 62.34555054 C-10.3263024 57.00395923 -9.30981154 51.6586019 -8.296875 46.3125 C-8.09678833 45.25673264 -7.89670166 44.20096527 -7.69055176 43.11320496 C-5.73527128 32.72191511 -4.0181767 22.30017898 -2.40917969 11.8503418 C-2.14476074 10.13584839 -2.14476074 10.13584839 -1.875 8.38671875 C-1.72804688 7.40920654 -1.58109375 6.43169434 -1.4296875 5.42456055 C-1 3 -1 3 0 0 Z " fill="#FAB601" transform="translate(897,2652)"/>
<path d="M0 0 C6.93 0 13.86 0 21 0 C19.94078731 6.43675404 18.85257784 12.86640962 17.7109375 19.2890625 C16.38927497 26.75032773 15.09544338 34.21625202 13.80859375 41.68359375 C13.61615585 42.7994133 13.42371796 43.91523285 13.22544861 45.06486511 C12.42661081 49.69732367 11.62798252 54.32981692 10.83129883 58.96264648 C10.24161051 62.39067258 9.65023391 65.81840405 9.05859375 69.24609375 C8.88146347 70.27858749 8.70433319 71.31108124 8.52183533 72.37486267 C5.62766698 89.11699905 5.62766698 89.11699905 4 94 C-2.6 94 -9.2 94 -16 94 C-15.57232632 85.87420012 -14.31639962 78.20108665 -12.65332031 70.26269531 C-11.22795675 63.36962697 -10.07461339 56.45572773 -9 49.5 C-7.67713359 40.97868716 -6.17935654 32.52458387 -4.43847656 24.07910156 C-2.79118127 16.07936216 -1.38773616 8.04886975 0 0 Z " fill="#FAB601" transform="translate(2432,2652)"/>
<path d="M0 0 C3.37470504 -0.11689626 6.7488843 -0.18747934 10.125 -0.25 C11.07632812 -0.28351562 12.02765625 -0.31703125 13.0078125 -0.3515625 C18.86634689 -0.43293103 22.42498029 -0.06343603 27 4 C29.97764252 8.46646378 29.61441495 12.76248719 29 18 C26.57171327 22.85657346 23.72229665 25.53167464 19.015625 28.0703125 C14.57631812 29.43890711 10.30224058 29.20979382 5.6875 29.125 C4.75615234 29.11597656 3.82480469 29.10695313 2.86523438 29.09765625 C0.5765564 29.07418263 -1.71158672 29.04134729 -4 29 C-2.83007154 19.30452907 -1.55220235 9.6434699 0 0 Z " fill="#33455E" transform="translate(1087,2669)"/>
<path d="M0 0 C0.33 0 0.66 0 1 0 C1.71626282 4.19851931 2.42821704 8.39773988 3.13623047 12.59765625 C3.37756682 14.02558999 3.62006848 15.45332731 3.86376953 16.88085938 C4.2143498 18.93568902 4.56069948 20.99119431 4.90625 23.046875 C5.11572266 24.28276367 5.32519531 25.51865234 5.54101562 26.79199219 C6 30 6 30 6 34 C-1.59 34 -9.18 34 -17 34 C-15.48334168 29.45002503 -13.96480529 25.74124913 -11.77734375 21.54296875 C-11.31902916 20.66032097 -11.31902916 20.66032097 -10.85145569 19.75984192 C-10.21057734 18.52769863 -9.56759896 17.29664554 -8.92260742 16.06665039 C-7.93242204 14.17781349 -6.94911013 12.28551902 -5.96679688 10.39257812 C-1.15269328 1.15269328 -1.15269328 1.15269328 0 0 Z " fill="#314257" transform="translate(1708,2675)"/>
<path d="M0 0 C0.33 0 0.66 0 1 0 C1.71626282 4.19851931 2.42821704 8.39773988 3.13623047 12.59765625 C3.37756682 14.02558999 3.62006848 15.45332731 3.86376953 16.88085938 C4.2143498 18.93568902 4.56069948 20.99119431 4.90625 23.046875 C5.11572266 24.28276367 5.32519531 25.51865234 5.54101562 26.79199219 C6 30 6 30 6 34 C-1.59 34 -9.18 34 -17 34 C-15.48334168 29.45002503 -13.96480529 25.74124913 -11.77734375 21.54296875 C-11.31902916 20.66032097 -11.31902916 20.66032097 -10.85145569 19.75984192 C-10.21057734 18.52769863 -9.56759896 17.29664554 -8.92260742 16.06665039 C-7.93242204 14.17781349 -6.94911013 12.28551902 -5.96679688 10.39257812 C-1.15269328 1.15269328 -1.15269328 1.15269328 0 0 Z " fill="#33465E" transform="translate(1203,2675)"/>
<path d="M0 0 C4.95 0 9.9 0 15 0 C15 4.62 15 9.24 15 14 C10.05 14 5.1 14 0 14 C0 9.38 0 4.76 0 0 Z " fill="#2D425D" transform="translate(43,3388)"/>
<path d="M0 0 C2.97 0 5.94 0 9 0 C8.67 2.31 8.34 4.62 8 7 C5.69 7.33 3.38 7.66 1 8 C0.67 10.31 0.34 12.62 0 15 C-2.31 15 -4.62 15 -7 15 C-7 12.36 -7 9.72 -7 7 C-4.69 7 -2.38 7 0 7 C0 4.69 0 2.38 0 0 Z " fill="#2B3E5A" transform="translate(1986,1654)"/>
<path d="M0 0 C4.95 0 9.9 0 15 0 C15 2.31 15 4.62 15 7 C10.05 7 5.1 7 0 7 C0 4.69 0 2.38 0 0 Z " fill="#283A54" transform="translate(43,3388)"/>
<path d="M0 0 C2.64 0 5.28 0 8 0 C7.67 2.31 7.34 4.62 7 7 C4.69 7 2.38 7 0 7 C0 4.69 0 2.38 0 0 Z " fill="#2B3E5A" transform="translate(1950,1676)"/>
<path d="M0 0 C2.64 0 5.28 0 8 0 C7.67 2.31 7.34 4.62 7 7 C4.69 7 2.38 7 0 7 C0 4.69 0 2.38 0 0 Z " fill="#2A3C57" transform="translate(1965,1669)"/>
</svg>
